<svg xmlns="http://www.w3.org/2000/svg" viewBox="0 0 520 300"><path fill="#FFF" stroke="#919191" stroke-width=".879" stroke-miterlimit="10" d="M272.5 186.6c0 4.6-3.7 8.3-8.3 8.3H12.7c-4.6 0-8.3-3.7-8.3-8.3V49.5c0-4.6 3.7-8.3 8.3-8.3h251.6c4.6 0 8.3 3.7 8.3 8.3v137.1h-.1z"/><path fill="#035C4B" d="M266.2 202.6H14.7c-7 0-12.7-5.7-12.7-12.8V51.3c0-7.1 5.8-12.9 12.7-12.9h251.6c7 0 12.7 5.8 12.7 12.9v138.5c0 7.1-5.7 12.8-12.8 12.8zM14.7 47.4c-2.2 0-4 1.7-4 4v138.5c0 2.2 1.7 4 4 4h251.6c2.2 0 4-1.7 4-4V51.3c0-2.2-1.7-4-4-4H14.7z"/><path fill="#06A98F" d="M264.3 199.4H12.7c-7 0-12.7-5.8-12.7-12.7V49.5c0-7 5.8-12.7 12.7-12.7h251.6c7 0 12.7 5.8 12.7 12.7v137.2c0 6.9-5.8 12.7-12.7 12.7zM12.7 45.5c-2.2 0-4 1.7-4 4v137.2c0 2.2 1.7 4 4 4h251.6c2.2 0 4-1.7 4-4V49.5c0-2.2-1.7-4-4-4H12.7z"/><g fill="#06A98F"><path d="M76.2 68.9c.5-1 1-2.2 1.7-3.2.1-.3-.3-.6-.5-.3-.5 1-1 2.2-1.7 3.2-.3.4.2.7.5.3m-5.4 18.3c.8-1 1.7-2.2 2.5-3.4.3-.3-.3-.5-.5-.3-.8 1-1.7 2.2-2.5 3.4-.3.3.3.7.5.3"/><path d="M69.9 64.6c2.5-.8 5.3-.4 7.5 1 .3.3.6-.3.3-.5-2.3-1.4-5.3-1.9-8-1-.3-.1-.2.6.2.5m4.6 14.1c-3.1.3-6.3-.8-8.3-3.4-2.1-2.9-1.4-6.7.9-9.2.3-.3-.1-.6-.4-.4-2.3 2.5-3.2 6.2-1.4 9.3 1.8 3.1 5.5 4.7 9 4.4.6 0 .6-.7.2-.7m6.4 5.3c.8-1 1-2.5.3-3.7-.6-1.2-2.1-1.7-3.4-1.8-.4 0-.4.5 0 .5 2.5.3 4.2 2.2 2.6 4.6-.3.4.2.8.5.4m-8 0c1.4 1.2 3.2 1.9 5.1 1.7.4 0 .4-.6 0-.5-1.7.1-3.4-.5-4.7-1.6-.4-.3-.8.1-.4.4m7.3 5.1c-3.2 1.3-7 .4-9.6-1.9-.3-.3-.6.1-.4.4C73 90 77 91.1 80.5 89.7c.3-.2.1-.8-.3-.6"/><path d="M75.7 74.8c3.2 0 6.7.4 8.5 3.4 1.9 3.2 1 6.8-1.6 9.4-.3.3.1.6.4.4 2.6-2.6 3.7-6.2 1.9-9.6-1.8-3.7-5.5-4.2-9.3-4.2-.3 0-.3.6.1.6M68.5 69c-.8 1-1.2 2.5-.5 3.7.8 1.4 2.5 1.8 3.8 1.9.4 0 .5-.5.1-.5-1-.1-2.3-.4-3.1-1.3-1-1-.5-2.5.3-3.6 0-.2-.5-.6-.6-.2m7.4-.4c-1.3-.6-2.6-1.3-4.2-1.2-.4 0-.4.6 0 .5 1.3-.1 2.6.5 3.8 1 .4.4.7-.2.4-.3M66.3 64c.8-.4 1.6-.9 2.3-1.4.3-.3 0-.6-.3-.5-.8.4-1.6.9-2.3 1.4-.3.3-.1.8.3.5m13.8 25.6c.4.6.8 1.3 1.2 1.9.3.4.4.8.8.9.4 0 .8-.1 1-.4.5-.3.9-.6 1.4-1 .3-.3 0-.8-.3-.5-.3.3-.6.4-.9.6-.3.3-.6.5-1 .5-.3 0-.4-.1-.5-.4s-.3-.5-.4-.6c-.3-.5-.5-.9-.8-1.4-.2-.3-.8 0-.5.4m-5.8-10.3c1.2 2.1 2.3 4.2 3.6 6.3.3.3.6 0 .5-.3-1.2-2.1-2.3-4.2-3.6-6.3-.3-.3-.8 0-.5.3"/><path d="M68.5 69.1c1 1.8 1.9 3.6 3 5.4.3.3.6 0 .5-.3-1-1.8-1.9-3.6-3-5.4-.1-.3-.7-.1-.5.3M65.7 64c.4.6.6 1.3 1 1.9.1.3.6 0 .5-.3-.4-.6-.6-1.3-1-1.9-.1-.2-.6.1-.5.3m16.8 24.2c.5.9 1 1.9 1.7 2.9.3.3.6 0 .5-.3-.5-.9-1-1.9-1.7-2.9-.1-.4-.6-.1-.5.3m-5-9.3c.9 1.7 1.9 3.6 2.9 5.3.1.3.6 0 .5-.3-.9-1.7-1.9-3.6-2.9-5.3-.1-.4-.6 0-.5.3m-6.2-11.1c1.3 2.2 2.6 4.6 3.8 6.8.3.3.6 0 .5-.3-1.3-2.2-2.5-4.6-3.8-6.8-.1-.3-.6-.1-.5.3m-3-5.2c.4.5.8 1.2 1 1.8.3.3.8 0 .5-.3-.4-.5-.8-1.2-1-1.8-.2-.4-.7.1-.5.3m165.8 8.9c1-.1 2.2-.3 3.2-.4.3 0 .3-.5 0-.5-1 .1-2.2.3-3.2.4-.3 0-.3.5 0 .5m-16 5c1.3 0 2.5.1 3.8.1.3 0 .3-.5 0-.5-1.3 0-2.5-.1-3.7-.1-.5-.1-.5.5-.1.5"/><path d="M234.2 64.7c1.8 1.4 2.9 3.7 2.9 6 0 .3.5.3.5 0 0-2.5-1.2-4.7-3.1-6.3-.2-.4-.6 0-.3.3M226.1 75c-1.7-2.2-2.5-5-1.6-7.6 1-3 4.2-4.4 7.2-3.8.3 0 .4-.5.1-.5-3-.5-6 .6-7.5 3.6-1.4 2.9-.6 6.3 1.3 8.8.2 0 .7-.2.5-.5m-.7 7.2c1.2 0 2.3-.5 2.9-1.6.5-1 .3-2.3-.4-3.4-.1-.3-.5 0-.4.3 1 1.9.4 4.2-2.1 4.2-.4 0-.2.5 0 .5m-3.9-5.7c-.1 1.6.3 3.4 1.3 4.6.3.3.6 0 .4-.3-.9-1-1.3-2.7-1.2-4.2.1-.4-.5-.5-.5-.1m-.1 7.9c-2.6-1.8-3.7-5-3.2-8 0-.3-.5-.4-.5-.1-.5 3.2.6 6.6 3.4 8.5.3.2.7-.3.3-.4"/><path d="M229.5 74c1.6 2.3 3 5 1.7 7.9-1.4 3-4.5 4.1-7.6 3.4-.3 0-.4.4-.1.5 3.1.6 6.3-.4 8-3.2 1.7-3.1.4-6.2-1.4-8.8-.3-.5-.7-.1-.6.2m.8-8.3c-1.2 0-2.3.3-3 1.4s-.1 2.7.4 3.8c.1.3.6.1.5-.1-.4-.9-.9-1.9-.6-2.9.3-1.3 1.6-1.7 2.7-1.6.4 0 .4-.6 0-.6m3.9 5.4c-.1-1.2-.4-2.6-1.2-3.6-.3-.3-.6 0-.4.3.8.9.9 2.2 1 3.2.2.5.7.5.6.1m-1.4-9.2c.6.4 1.4.6 2.2 1 .3.1.5-.3.3-.5-.6-.4-1.4-.6-2.2-1-.3-.1-.6.4-.3.5M221 84.5c-.3.5-.5 1.2-.8 1.8-.1.3-.4.8-.3 1 .1.3.5.4.8.5.5.3.9.4 1.4.5.3.1.5-.3.3-.5-.3-.1-.6-.3-.9-.4-.3-.1-.8-.3-.9-.5-.1-.3 0-.3 0-.5.1-.3.3-.4.3-.6.3-.4.4-.8.6-1.3.2 0-.4-.2-.5 0m4.6-9.3l-2.7 5.7c-.1.3.3.5.5.3l2.7-5.7c.1-.5-.4-.7-.5-.3"/><path d="M230.3 66c-.8 1.6-1.7 3.2-2.5 4.9-.1.3.3.5.5.3.8-1.6 1.7-3.2 2.5-4.9 0-.4-.5-.6-.5-.3m2.2-4.5c-.3.5-.5 1.2-.9 1.7-.1.3.3.5.5.3.3-.5.5-1.2.9-1.7.2-.4-.4-.7-.5-.3m-9.3 24.2c-.4.8-.9 1.7-1.3 2.6-.1.3.3.5.5.3.4-.8.8-1.7 1.3-2.6.2-.4-.3-.7-.5-.3m4.3-8.3c-.8 1.6-1.7 3.1-2.5 4.7-.1.3.3.5.5.3.8-1.6 1.7-3.1 2.5-4.7.2-.4-.4-.7-.5-.3m5.1-10c-1 2.1-2.1 4.2-3.1 6.2-.1.3.3.5.5.3 1-2.1 2.1-4.2 3.1-6.2.2-.4-.3-.5-.5-.3m2.3-4.8c-.3.5-.5 1.2-.8 1.7-.1.3.3.5.5.3.3-.5.5-1 .8-1.7.2-.4-.4-.5-.5-.3m-34.5 107.7c-1.9-1.4-4.7-2.2-7.2-1.7-1.2.3-2.3 1-1.7 2.5.4.8 1.2 1 1.8 1.4 1.3.6 2.7 1.4 3.8 2.5 1 .8 1 1.6-.1 2.5-.1 1.3-.6 1.7-1.6 1.6-.8 0-1.9-.3-2.7-.5-1.7-.4-3.2-.9-4.7-1.9-.3-.3-.5.3-.4.5 1.4 1.8 4.9 2.3 7 2.6 1.7.3 4.1 0 4.4-2.1.3-2.1-2.1-3.8-3.6-4.7-.5-.4-1.2-.6-1.7-.9-.3-.1-.6-.3-.9-.5-.5-1.6 0-2.2 1.3-2.1 2.2-.3 4.2.5 6.2 1.6.1-.3.4-.7.1-.8"/><path d="M195.7 167c-1.3 4.2-2.7 8.5-3.8 13-.1.3.4.4.5.1 1.6-4.2 2.7-8.6 3.8-13 0-.3-.4-.4-.5-.1m2.7.1c-1.7 4.2-3.1 8.8-3.7 13.4 0 .3.5.4.5 0 1.2-4.5 2.2-8.9 3.7-13.4 0-.3-.4-.3-.5 0M30.4 55.4c-1.2-.9-2.7-1.3-4.2-1-.8.1-1.4.6-1 1.4.3.4.6.6 1 .8.8.4 1.6.8 2.2 1.4.6.4.6.9 0 1.4 0 .8-.4 1-.9.9-.5 0-1-.1-1.6-.3-.9-.3-1.9-.5-2.7-1.2-.1-.1-.3.1-.3.3.8 1 2.9 1.4 4.2 1.6 1 .1 2.3 0 2.5-1.2.1-1.3-1.2-2.2-2.1-2.7-.3-.3-.6-.4-1-.5-.3-.1-.4-.1-.5-.3-.3-.9 0-1.3.8-1.3 1.3-.1 2.5.3 3.7.9-.1.1 0-.1-.1-.2"/><path d="M27.5 53.4c-.8 2.5-1.7 5.1-2.2 7.7 0 .3.3.3.3.1.9-2.5 1.7-5.1 2.2-7.7.1-.2-.1-.2-.3-.1m1.7.1c-.9 2.5-1.8 5.3-2.2 8 0 .1.3.3.3 0 .8-2.6 1.3-5.3 2.2-7.9 0-.2-.3-.3-.3-.1m42.8 106c2.2 1 5.8.5 7.9-.5.3-.1 0-.5-.3-.4-1.9 1-5.4 1.6-7.5.5-.1-.1-.4.3-.1.4"/><path d="M79.7 158.3c-1.7-.5-4-.9-5.7-.6-.8.1-2.3.6-2.2 1.7 0 .3.5.1.5-.1-.3-1.4 3.1-1 3.8-1 1.2.1 2.2.3 3.4.5.3-.1.5-.4.2-.5m2.9-3.2c-.5 0-3.6.1-3.1 1.3.1.5 1.2.6 1.4.8 1 .3 2.1.5 3.2.4.5 0 1.9-.3 1.9-1 0-1.4-2.6-1.5-3.4-1.5-.3 0-.3.3 0 .4.6.1 2.1.1 2.6.5.8.9-1.4.9-1.8.9-.8 0-1.9-.1-2.7-.5-.8-.5-.4-.6.3-.9.5-.1 1-.1 1.7-.3.2.3.2-.1-.1-.1m4.8 4.4c-1-.1-3.1-.4-3.8.5-1 1.4 1.8 1.6 2.5 1.6.9 0 4.4.3 4.7-.9.5-1.4-3-1.3-3.7-1.2-.3 0-.1.4 0 .4.6 0 1.3 0 1.9.1.5.1 1.7.4.6.8-.9.5-2.6.3-3.6.3-.5 0-1.2 0-1.7-.1-.9-.3-.4-.9.3-1 .8-.3 1.7-.1 2.5-.1.5 0 .6-.4.3-.4"/><path d="M72.1 159.5c-.5 6.6-.5 13.3-.1 19.7 0 .3.5.3.5 0v-19.7c0-.3-.4-.3-.4 0m7.4-1.1c0 3.4.1 7 .3 10.3 0 1.7.1 3.2.1 5 0 1.6.6 4.5-.1 5.8-.1.3.3.5.4.3.6-1 .3-2.5.3-3.7 0-1.9-.1-3.8-.1-5.8-.1-4-.1-7.9-.3-11.8-.3-.3-.6-.3-.6-.1"/><path d="M71.9 179.3c1.3 2.3 6.3 1.6 8 .5.3-.1 0-.5-.1-.4-1.7.5-3.2.9-5 .6-.8-.1-1.9-.3-2.5-1-.2-.1-.6 0-.4.3m.2-18.3c1.6 2.1 5.5 1.7 7.7 1 .3 0 .1-.4-.1-.4-2.2.4-5.5.9-7.3-.9 0 0-.4.1-.3.3m-.1 3c.6.8 1.9.8 2.9.8 1.6.1 3.1-.1 4.6-.6.3-.1.1-.4-.1-.4-1.2.3-2.2.5-3.6.5-.9 0-3 .1-3.7-.5-.1-.4-.2-.1-.1.2m0 2.6c1.9.9 5.7 1.6 7.3-.1.1-.1 0-.4-.3-.3-1.9 1.4-4.9.9-7 .1 0-.1-.1.1 0 .3m.1 2.8c2.5.8 5.4.8 7.9-.3.1-.1 0-.4-.1-.3-2.6.8-5 .8-7.6.3-.3-.1-.4.3-.2.3m.1 2.4c1.9 1.2 5.5 1.4 7.5.1.3-.1 0-.4-.3-.3-1.9 1-5.1.9-7.1-.1-.1-.1-.3.2-.1.3m-.2 3.3c1.3.6 2.5.8 4 .6 1.4 0 2.9 0 4.2-.8.1-.1 0-.4-.1-.3-2.2.9-5.5 1-7.9.1-.2-.1-.3.3-.2.4m.1 2.8c1.6.3 3.2.4 4.9.3 1 0 2.1-.1 3-.8.1-.1 0-.4-.3-.3-2.1 1.2-5.4.6-7.6.4-.1-.1-.1.2 0 .4m7.4-21.5c.1 1-.1 2.2 0 3.1 0 .1.3.1.4 0 .1-.9.3-2.2 0-3.2-.2-.2-.4-.2-.4.1m6.3.1c0 1-.1 2.1 0 3.1 0 .3.3.1.4 0 .1-1 0-2.1 0-3-.1-.4-.4-.4-.4-.1m-5.6 19.3c.8.6 2.3.9 3.2.5.3-.1.1-.4-.1-.3-.9.1-2.2.1-3-.4.1-.2-.2.1-.1.2"/><path d="M83.4 160.8c-.3 6.2-.4 12.6 0 18.8 0 .3.4.3.4 0 .3-6.2.3-12.6 0-18.8 0-.1-.4-.1-.4 0m7.2.3c.1 6 .3 12.2.3 18.3 0 .3.4.3.5 0 .1-6 0-12.2-.4-18.3-.1-.3-.4-.3-.4 0"/><path d="M83.4 179.4c1.7 2.3 6 1.6 7.9-.1.1-.1 0-.4-.3-.3-1.9 1.3-5.4 2.2-7.3.3-.2-.1-.4 0-.3.1M79.8 159c.8.6 1.7.8 2.6.8 1 0 2.5.1 3.4-.5.1-.1 0-.4-.1-.3-1.7.5-4.1.6-5.7-.3-.2-.1-.3.1-.2.3m.2 2.9c.9.8 2.3 1 3.4.8.3 0 .1-.4 0-.4-1.2.1-2.1 0-3.1-.6-.3-.2-.6-.1-.3.2m.1 2.5c.9.6 2.3.9 3.4.5.3-.1 0-.4-.1-.3-1 .1-2.1.1-3-.4-.4-.2-.6 0-.3.2m-.4 2.4c.5 1.3 2.7 1 3.7.6.3 0 .1-.4-.1-.3-.9.1-2.7.5-3.2-.5-.1-.2-.4 0-.4.2m.4 3.1c.9.8 2.5 1.2 3.6.5.3-.1 0-.4-.1-.3-1.2.3-2.2.3-3.2-.5-.2-.1-.4.2-.3.3m.3 3c.9.4 2.1.6 3 .3.3 0 .1-.4 0-.4-1 0-1.8.1-2.9-.3-.1 0-.4.4-.1.4m3.3-9.8c1.9 1.4 4.7 1.4 6.8.8.3 0 .1-.4 0-.4-2.3.3-4.5.5-6.7-.6-.1-.2-.3 0-.1.2m0 2.9c2.1 1 5 1.3 7.2.3.3-.1 0-.4-.1-.4-2.5.5-4.6.6-7-.3-.1.1-.3.3-.1.4m.4 3.6c1.2.8 2.3.8 3.7.8 1 0 2.2 0 3-.8.1-.1 0-.4-.3-.3-1.6 1.2-4.7.8-6.3 0-.3-.1-.4.2-.1.3m-.2 2.7c2.2 1.4 5.3 1.4 7.5 0 .3-.1 0-.4-.1-.3-2.3 1-4.7 1.2-7.1 0-.3 0-.5.2-.3.3m0 3.4c.3 0 .3-.3 0-.3-.2 0-.2.3 0 .3"/><path d="M83.9 175.4c1.9 1.3 4.7 1.4 6.7.1.3-.1 0-.4-.1-.3-2.1.9-4.2 1-6.3-.1-.3-.2-.5.2-.3.3m-.4 2.6c1.9 1.9 5.8 1.9 7.7.1.1-.1 0-.4-.3-.3-2.3 1.4-5 1.6-7.3-.1.1-.1-.2.2-.1.3m11.6 1.6c1.3 1.4 2.9 2.7 5 3.1 1.2.3 1.9-.1 1.4-1.4-.5-1.4-6.3-4.9-6.6-2.1 0 .3.3.3.4 0 .6-1.7 5.5 1 5.7 2.2.3 1.6-2.2.3-2.9 0-.9-.5-1.8-1.4-2.6-2.1-.3-.1-.5.1-.4.3"/><path d="M95 179.2c-.4.4-.8.8-.8 1.4 0 .1.3.3.3.1.1-.3.3-.4.4-.6.1-.3.3-.5.4-.6.1-.3-.2-.5-.3-.3m6.1 3c-.4.5-.9 1.2-.9 1.9 0 .3.3.3.4.1.1-.3.3-.5.4-.9.1-.3.3-.5.5-.8 0-.3-.3-.5-.4-.3"/><path d="M94 180.5c.9 2.2 4.1 3.8 6.3 3.7.3 0 .3-.4 0-.4-2.2-.3-5-1.2-6-3.4 0-.2-.3-.1-.3.1"/><path d="M94.3 180.3c-1.3-.3-5.1-.1-5.5 1.6-.5 2.1 6.3 1.2 7.2.9.3 0 .1-.5-.1-.4-1.2.1-2.3.3-3.6.3-.6 0-3.8 0-2.5-1.2.9-.9 3.1-.8 4.4-.8.2 0 .3-.2.1-.4"/><path d="M88.8 182.2v.9c0 .3 0 .5.1.8 0 .1.3.1.4 0v-.8c0-.3 0-.5-.1-.8-.1-.3-.4-.2-.4-.1"/><path d="M88.9 184c2.1 1.4 6.3.9 8.4-.4.3-.1 0-.5-.3-.4-2.2 1-5.7 1.7-8 .5-.1 0-.3.2-.1.3m170.9-80.4c-2.7 1.4-7.1.8-9.7-.6-.3-.1 0-.6.3-.5 2.3 1.2 6.6 1.9 9 .6.5-.1.8.3.4.5"/><path d="M250.4 102.2c1.9-.6 4.9-1.2 7-.8 1 .1 2.9.8 2.6 2.1 0 .4-.6.3-.5-.1.3-1.7-3.8-1.4-4.7-1.3-1.4.1-2.7.4-4.2.6-.3 0-.5-.5-.2-.5m-3.6-4c.6 0 4.4.1 4 1.6-.1.5-1.4.8-1.8.9-1.3.4-2.6.5-4 .4-.6 0-2.3-.3-2.3-1.3.1-1.5 3.2-1.8 4.1-1.6.3 0 .3.4 0 .5-.8.1-2.5.1-3.1.8-1 1 1.8 1.2 2.2 1.2.9 0 2.5-.1 3.2-.5 1-.5.5-.8-.4-1-.6-.1-1.3-.3-1.9-.3-.2-.4-.2-.7 0-.7m-5.9 5.3c1.2-.3 3.8-.5 4.7.8 1.2 1.8-2.2 1.8-3.1 1.9-1 0-5.3.4-5.8-1-.5-1.7 3.7-1.6 4.5-1.4.3 0 .3.5 0 .4-.8 0-1.6 0-2.3.1-.6.1-2.1.5-.8 1 1 .5 3.1.4 4.5.3.6 0 1.4 0 2.2-.1 1.2-.3.4-1-.4-1.3-1-.3-2.1-.1-3-.1-.6-.1-.8-.5-.5-.6"/><path d="M259.7 103.5c.6 8 .5 16.2.1 24.1 0 .4-.5.4-.5 0 .1-8 0-16.1 0-24.1 0-.3.4-.3.4 0m-8.9-1.2c0 4.2-.1 8.4-.3 12.6 0 1.9-.1 4.1-.1 6s-.8 5.4.3 7.1c.1.3-.3.5-.5.3-.8-1.3-.4-3-.4-4.6 0-2.3.1-4.7.1-7 .1-4.9.1-9.7.4-14.6 0 0 .5 0 .5.2"/><path d="M259.9 127.8c-1.6 2.9-7.6 1.9-9.8.6-.3-.1-.1-.5.3-.5 1.9.6 4 1 6.2.8 1-.1 2.5-.4 3.1-1.3.1 0 .4.1.2.4m-.2-22.4c-1.9 2.5-6.8 2.1-9.4 1.3-.3-.1-.1-.5.1-.4 2.7.5 6.8 1 9-1 .1-.3.4-.1.3.1m.1 3.6c-.8.9-2.5.9-3.6.9-1.9.1-4-.1-5.7-.8-.3-.1-.1-.5.1-.4 1.4.3 2.7.6 4.4.6 1.2 0 3.7.3 4.6-.6.2-.2.5 0 .2.3m0 3.2c-2.5 1.2-6.8 1.9-9-.3-.1-.1 0-.5.3-.4 2.3 1.8 6 1 8.5.3.2 0 .5.4.2.4m0 3.5c-3.1 1-6.7 1-9.7-.4-.3-.1 0-.5.1-.4 3.2 1 6 1 9.3.3.4 0 .6.4.3.5m-.3 3.1c-2.3 1.4-6.8 1.8-9.2.1-.3-.1 0-.5.3-.4 2.5 1.2 6.3 1.2 8.6-.1.3-.2.6.2.3.4m.3 3.8c-1.6.8-3.1.9-4.9.8-1.7 0-3.6 0-5.1-.9-.3-.1 0-.5.1-.4 2.7 1.2 6.8 1.2 9.6.1.3-.1.6.3.3.4m-.1 3.4c-1.9.3-4 .5-5.9.4-1.3 0-2.6-.1-3.7-.9-.3-.1 0-.5.3-.3 2.5 1.4 6.6.8 9.3.5.1-.1.2.3 0 .3m-8.9-26.3c-.1 1.3.1 2.6-.1 3.8 0 .3-.4.3-.4 0-.3-1.2-.3-2.7.1-4 0 0 .4 0 .4.2m-7.8.1c0 1.3.1 2.6-.1 3.8 0 .3-.4.1-.4 0-.1-1.2 0-2.5.1-3.8.1-.2.4-.2.4 0m6.9 23.8c-1 .8-2.9 1-4.1.6-.3-.1-.1-.5.1-.4 1.2.3 2.7.1 3.7-.5.1-.3.4.1.3.3"/><path d="M245.9 105.2c.3 7.6.4 15.5 0 23.1 0 .3-.5.3-.5 0-.4-7.6-.3-15.5 0-23.1.1-.2.4-.2.5 0m-8.8.3c-.1 7.5-.3 14.8-.4 22.3 0 .4-.5.4-.5 0-.1-7.5 0-14.9.5-22.3 0-.3.4-.3.4 0"/><path d="M245.9 128.2c-1.9 2.9-7.3 1.8-9.6-.1-.3-.1 0-.5.3-.4 2.5 1.7 6.7 2.7 8.9.3.3-.3.5-.1.4.2m4.4-25.2c-.9.8-1.9 1-3.1 1-1.4 0-3 .1-4.2-.5-.3-.1 0-.5.1-.4 2.1.8 5 .8 7-.4 0-.3.3 0 .2.3m-.2 3.4c-1 .9-2.9 1.4-4.2.9-.3 0-.3-.5 0-.5 1.4.1 2.6 0 3.8-.8.4-.1.7.3.4.4m-.1 3.1c-1 .8-2.7 1.2-4.2.5-.3-.1 0-.4.1-.4 1.4.3 2.5.1 3.8-.5.4-.1.6.3.3.4m.4 2.9c-.5 1.7-3.2 1.3-4.6.8-.3-.1-.1-.5.1-.4 1 .3 3.4.8 4.1-.6.1 0 .5.1.4.2m-.5 3.8c-1 1-3 1.4-4.5.6-.3-.1 0-.5.1-.4 1.4.3 2.6.3 4-.5.4-.2.6.2.4.3m-.3 3.9c-1 .5-2.5.8-3.7.4-.3-.1-.3-.5 0-.5 1.2.1 2.2.1 3.6-.3.2-.2.4.2.1.4m-4.1-12.3c-2.3 1.7-5.7 1.7-8.4.9-.3 0-.3-.5 0-.5 3 .3 5.4.6 8.1-.8.3-.1.6.3.3.4m0 3.9c-2.6 1.3-6.2 1.6-8.8.4-.3-.1 0-.5.1-.4 3 .6 5.7.8 8.5-.4.3-.2.5.4.2.4m-.4 4.3c-1.4.9-3 1-4.6 1-1.3 0-2.7 0-3.8-1-.1-.1 0-.5.3-.4 1.9 1.4 5.8 1 7.7-.1.4-.1.7.3.4.5m.2 3.4c-2.6 1.7-6.4 1.8-9 0-.3-.1 0-.5.3-.4 3 1.4 5.7 1.6 8.6 0 .2-.1.3.3.1.4m0 3.9c-.3 0-.3-.4 0-.4.2 0 .2.4 0 .4"/><path d="M245.4 122.9c-2.3 1.6-5.8 1.7-8.1.1-.3-.1 0-.5.3-.4 2.6 1.2 5.1 1.2 7.7-.1.1-.1.2.3.1.4m.4 3.3c-2.3 2.5-7.1 2.3-9.4.1-.1-.1 0-.4.3-.3 2.9 1.7 6.2 1.9 9-.1-.1-.2.2.1.1.3m-14.2 2c-1.7 1.7-3.6 3.4-6 3.8-1.4.3-2.3-.3-1.7-1.7.8-1.7 7.7-5.9 8-2.6 0 .3-.4.3-.4 0-.8-2.1-6.7 1.2-7 2.7-.3 1.9 2.7.4 3.6 0 1.2-.8 2.2-1.7 3.2-2.6.2-.1.6.1.3.4"/><path d="M231.7 127.8c.4.4 1 1 1 1.7 0 .3-.3.3-.4.1-.3-.3-.3-.5-.5-.8-.1-.3-.3-.5-.5-.8-.1-.2.3-.5.4-.2m-7.6 3.5c.5.5 1 1.6 1 2.3 0 .3-.3.3-.4.1-.3-.4-.3-.8-.5-1-.1-.4-.4-.6-.5-1-.1-.3.3-.7.4-.4"/><path d="M232.8 129.3c-1 2.7-5 4.6-7.7 4.5-.3 0-.3-.5 0-.5 2.7-.3 6-1.4 7.3-4.2.1-.1.5 0 .4.2"/><path d="M232.5 129.2c1.6-.4 6.2-.3 6.8 1.9.6 2.6-7.7 1.4-8.9 1.2-.4-.1-.3-.5.1-.5 1.4.3 2.9.4 4.4.4.8 0 4.6-.1 3-1.4-1.2-1-3.8-.9-5.4-.9-.2-.3-.2-.7 0-.7"/><path d="M239.3 131.4v1c0 .3 0 .6-.1.9s-.4.1-.4 0c-.1-.3 0-.6 0-1s0-.6.1-1c.1-.1.4-.1.4.1"/><path d="M239.1 133.7c-2.5 1.7-7.7 1.2-10.2-.5-.3-.3 0-.6.3-.5 2.6 1.4 7 2.1 9.7.6.3-.1.4.1.2.4M23.6 92.6l1.4-.1h1.2s.1 0 .3-.1c0 0 .1-.1.3-.1 0 0 .1-.1.1-.3v-.4s0-.1-.1-.1l-.5-.8-1.9-1.8-.1-.1s0-.1-.1-.1l-.1-.1c-.1-.1-.3-.4-.3-.5v-.5c0-.1.1-.3.1-.4.1-.1.3-.3.3-.4.1-.1.3-.1.4-.3h.5c.1 0 .3 0 .5.1.1 0 .3.1.4.3.1.1.1.3.3.4.1.3 0 .6-.1.9v-.7c0-.1-.1-.3-.1-.3l-.3-.3c-.1 0-.3-.1-.4-.1H25c-.1 0-.1 0-.3.1-.1 0-.1.1-.3.3 0 .1-.1.1-.1.3v.8l2.2 2.1.1.1s0 .1.1.1v.1c.1.1.1.3.3.5v.5c0 .1-.1.3-.3.4-.1.1-.3.3-.5.3-.1 0-.3.1-.5.1h-.9l-.9-.1h-.2c0 .4 0 .4-.1.2 0 .2 0 .2 0 0 0 .2 0 0 0 0m6.3-1v-1.9l-.5 1.4v.1s0 .1-.1.1c0 0 0 .1-.1.1 0 0 0 .1-.1.1 0 .1-.1.3-.3.3-.1.1-.3.1-.3.3-.1 0-.3 0-.4-.1-.1-.1-.1-.3-.3-.4v-.9l.1-1.6.3-1v-.2l-.1 3.2v.3l.1-.1 1.4-2.5v-1.4.2l.1 3.8.5-.4h.1v.1s0 .1-.1.3c0 0-.1.1-.1.3 0 0-.1.1-.1.3 0 0-.1.1-.3.1h-.3s-.1-.1-.1-.3c.6-.1.6-.1.6-.2m-.1-2zm1.4 1.3v-1.3l.3-.9.4-.8.4-.6.1-.1.1-.1c0-.1.1-.1.3-.3.1 0 .3-.1.3-.1h.3c.1 0 .1 0 .3.1l.3.3c0 .1.1.1.1.3v.7-.1l-.1-.5c0-.1-.1-.3-.3-.3-.1-.1-.3-.1-.3 0-.1 0-.1 0-.3.1l-.3.3-.4.8-.6.8v2.1h.1l.5-.4 1.7-1.8.1-.1v.1l-.8 1.3-.6.6s-.1 0-.1.1l-.1.1-.1.1c-.1.1-.3.1-.3.1h-.3c-.1 0-.1-.1-.3-.1 0 0-.1-.1-.1-.3-.3.2-.3.1-.3-.1zm14-7.2c0-.1-.1-.1-.3-.3 0 0-.1-.1-.3-.1h-.3c-.1 0-.3 0-.3.1-.1 0-.1.1-.3.3 0 0 0 .1-.1.1l.1.2-.4.8-.4.8-.3.9v1.3c0 .1 0 .1.1.3 0 .1.1.1.1.3 0 0 .1.1.3.1h.3c.1 0 .3-.1.3-.1s.1 0 .1-.1l.1-.1.1-.1.1-.1v-.1c0-.1 0-.3.1-.4h-.1l-.3.3-.5.4h-.1v-2.1l.3-1 .4-.8c0-.1.1-.1.3-.3.1 0 .1-.1.3-.1h.3s.1.4.1.9h.3c.1-.7 0-.9 0-1.1zm-10.7 6.4v-.4l.1-1.4.3-1 .3-.6c0-.1.1-.3.1-.3 0-.1.1-.3.3-.3l.3-.3c.1 0 .3-.1.3-.1h.6c.1 0 .1.1.3.1 0 0 .1.1.1.3v.5c0 .1-.1.3-.1.5 0 .1-.1.3-.3.4-.1.1-.1.3-.3.4s-.3.3-.4.3c-.1.1-.3.1-.4.3H35l-.1 1.2v.5h.6s.1 0 .3-.1l.5-.4 1.2-1.6.1-.1-.6 1.3v.1s0 .1-.1.1c0 0 0 .1-.1.1 0 0 0 .1-.1.1l-.5.5c-.1.1-.4.1-.6.3H35s-.1 0-.3-.1c-.2 0-.2-.2-.2-.3zm.5-1.8h.6c.1 0 .3-.1.4-.3.1-.1.3-.3.3-.4s.1-.3.3-.4c0-.1.1-.3.1-.4v-.6c0-.1 0-.1-.1-.1h-.3c-.1 0-.1 0-.3.1l-.3.3s-.1.1-.1.3c0 0-.1.1-.1.3v.3l-.5.9z"/><path d="M37.6 89.2v-.1l.1-.5v.9c0 .1.1.3.1.3h.3c.1 0 .3 0 .3-.1.1 0 .3-.1.3-.3.1-.1.3-.3.4-.3.1-.1.1-.3 0-.4 0 0 0-.1-.1-.3 0 0-.1-.1-.1-.3l-1-1.2c0-.1-.1-.3-.3-.3 0-.1-.1-.3-.1-.3v-.4c0-.1 0-.3.1-.4 0-.1.1-.3.3-.3.1-.1.3-.1.4-.3h.6c.1 0 .1.1.3.1 0 0 .1.1.1.3v.7s0 .1-.1.1v-.6c0-.1-.1-.3-.3-.3h-.4c-.1 0-.3.1-.4.3-.1.1-.1.3 0 .5v.2L39 88c0 .1.1.1.1.3 0 .1.1.3.1.3v.6c-.1.1-.3.4-.4.5-.1.1-.3.1-.4.3-.1 0-.3.1-.4.1h-.6c-.1 0-.1 0-.3-.1 0 0-.1-.1-.1-.3.6-.4.6-.5.6-.5m2.4-.7v-.1l.1-.5v.9c0 .1.1.3.1.3h.3c.2 0 .3 0 .3-.1.1 0 .3-.1.3-.3.1-.1.3-.3.4-.3.1-.1.1-.3 0-.4 0 0 0-.1-.1-.3 0 0-.1-.1-.1-.3l-1-1.2c0-.1-.1-.3-.3-.3 0-.1-.1-.3-.1-.3v-.4c0-.1 0-.3.1-.4 0-.1.1-.3.3-.3.1-.1.3-.1.4-.3h.6c.1 0 .1.1.3.1 0 0 .1.1.1.3v1s0 .1-.1.1v-.6c0-.1-.1-.3-.3-.3h-.4c-.1 0-.3.1-.4.3-.1.1-.1.3 0 .5v.2l1.2 1.4c0 .1.1.1.1.3 0 .1.1.3.1.3v.6c-.1.1-.3.4-.4.5-.1.1-.3.1-.4.3-.1 0-.3.1-.4.1h-.6c-.1 0-.1 0-.3-.1 0 0-.1-.1-.1-.3.4-.2.3-.4.3-.4m5 35.1c1.4 2.7 2.2 5.5 2.3 8.5.1 2.9-.5 5.7-1 8.5 0 .3.3.4.4.1 2.2-5.3 1.7-12.6-1.2-17.4-.3-.1-.5 0-.5.3"/><path d="M43.8 123.6c2.2 5.5 2.6 11 .5 16.6-.1.4.5.5.5.1 2.2-5.3 2.2-12-.6-17-.2-.1-.5.1-.4.3"/><path d="M44.4 140.9c.6 0 1.4.1 2.1.5.5.3 1.4 1.2.8 1.7-.5.5-1.4-.1-1.9-.5-.5-.5-.8-1-.8-1.8 0-.3-.4-.3-.5 0-.3.9.4 1.9 1 2.5.5.5 1.8 1 2.6.5.6-.5 0-1.8-.4-2.2-.8-.8-1.9-1-3-.9-.3-.2-.1.1.1.2m-5.5-17.3c-1.9 1.4-4.2 3.7-4.5 6.2-.4 2.9 2.2 5.1 4.5 6.4.3.1.5-.1.3-.3-1.9-1.7-4.9-3.4-4.1-6.6.5-2.2 2.3-4 4.1-5.4.2-.1-.1-.5-.3-.3"/><path d="M40.3 123.6c-1.8 1.7-3.7 4-4.1 6.4-.3 2.2 1.9 3.8 3.6 4.9.3.1.5-.3.3-.4-.6-.5-1.4-1-2.1-1.7-1-1-1.4-2.3-.9-3.8.6-1.9 2.2-3.4 3.6-5.1 0-.2-.3-.5-.4-.3"/><path d="M39.9 134.5c-.3.1-.5.4-.6.6-.1.3-.4.5-.4.9 0 .1.3.3.3.1.3-.3.3-.5.4-.6.1-.3.4-.5.5-.6.2-.3-.1-.6-.2-.4"/><path d="M38.7 135.8c-.3.8-.6 1.6-.1 2.3.4.5 1.2.5 1.7.1.9-.6 1.3-3.2 0-3.8-.3-.1-.3.3-.3.4.4.4.5.8.5 1.3s0 .9-.3 1.3c-.4.5-1.2.6-1.4-.1-.1-.5.1-1 .3-1.6.1-.1-.2-.2-.4.1m-3-34.8c-.8 2.7-.4 6.7 2.2 8.4 2.2 1.6 4.2-.3 4.9-2.5.8-2.5.5-5.9-1.9-7.5-1.8-1.2-4.5-.9-5.5 1-.1.3.3.4.4.3 1.2-1.6 3.2-1.8 5-.8 2.1 1.3 2.3 4.2 1.8 6.4-.3 1-.8 2.5-1.8 3-1.8.5-3.1-.5-4-1.8-1-1.9-1.3-4.2-.6-6.4-.1-.3-.5-.3-.5-.1"/><path d="M40.1 99.5c-.8.6-1.8.9-2.7 1.2-.6.1-1.4.4-1.9-.1-.5-.6-.5-1.5-.5-2.2 0-.3-.3-.3-.4 0-.3 1.2 0 2.7 1.6 3 1.4.3 3.4-.6 4.5-1.6-.2-.2-.4-.5-.6-.3m-1.7 10.4c-.9 0-1.7-.3-2.6-.4-.1 0-.5-.3-.8 0-.5.3-.3 1.7-.3 2.2.3 4.2 1.7 8.4 3 12.3 0 .1.1.1.3.1 2.6-.3 5.3-.4 7.7-.9.1 0 .1-.1.1-.3.4-5-.1-9.8-.5-14.8 0-.1-.1-.3-.3-.3-1 .1-2.6.6-3.1 1.6-.4.6-.4 1.6-.6 2.2-.3 1-.6 2.1-1 3.1h.4c-.8-1.6-1.3-3.2-2.1-4.9-.1-.3-.5 0-.4.3.6 1.6 1.3 3.2 2.1 4.9.1.3.4.1.4 0 .5-1.4 1-3 1.4-4.5 0-.3.3-1 .3-.9.3-.4 1.7-1 2.1-1 .8 0 .5.8.6 1.4 0 .5.1 1 .1 1.7.1 1.2.3 2.5.3 3.7.1 2.2.3 4.5 0 6.7 0 1 .1.8-.9.9-1.2.3-2.3.3-3.6.4-.5 0-1.3.3-1.8.3-1 0-1-.1-1.4-.9-.5-1.2-.8-2.7-1-4.1-.6-2.5-1.4-5.1-1.4-7.7v-1c.1 0 .8.3.9.3.8.1 1.4.3 2.2.1.2-.2.2-.5-.1-.5"/><path d="M40.3 114.8c.4 2.9.5 5.9 1.2 8.8 0 .3.4.1.4 0-.3-3-.8-5.9-1.3-8.8.1-.4-.3-.3-.3 0"/><path d="M38.1 110c-.3.8-1 2.1-.8 2.7.1.6 1.2 1.7 1.6 2.2.6.9 1.2 1.8 1.8 2.6.1.3.5 0 .3-.3-.9-1.3-1.8-2.7-2.7-4.1-.4-.5-.5-.6-.5-1.3s.4-1.4.6-2.1c.1.3-.3.2-.3.3"/><path d="M42.2 109.8c.3.5.6 1 .9 1.7.3.5.4.4.3 1 0 .3-.3.6-.5 1-.6 1.4-1.4 3-2.1 4.5-.1.3.3.4.3.3.4-1 .9-1.9 1.4-2.9.4-.8 1.3-2.1 1.3-2.9s-.9-1.9-1.4-2.6c.1-.5-.2-.2-.2-.1m-1.3.9c-.1-.1-.3-.3-.3-.4-.1-.1-.3-.3-.4-.3-.1 0-.1.1-.3.1-.1.3-.3.5-.3.6s0 .4.3.3c.3 0 .5 0 .8-.1.2.1.4-.1.2-.2m-.8.5c-.5.1-.4.8-.4 1.2 0 .6.1 1.4.5 2.1 0 .1.3.1.3 0 0 0 .1 0 .1-.1.3-.6.1-1.6 0-2.2.2-.3.2-1-.5-1m-5-1.3c-2.5.3-4.9-.6-5.8-3.1-.8-2.1 0-4 .8-5.8.1-.3-.3-.4-.4-.1-1.2 2.1-1.7 4.7-.5 7 1.2 2.1 3.6 3 5.9 2.5.3-.1.2-.5 0-.5"/><path d="M35 112.4c-2.5 0-5.8-1.4-7-3.8-1.3-2.5-.4-5.8 1-8 .1-.3-.3-.5-.4-.3-1.9 1.9-2.5 6-1.2 8.5 1.2 2.2 4.9 4.4 7.5 3.8.4.1.4-.2.1-.2"/><path d="M30 100.9c-.4-.3-.9-.6-1.4-.5-.3 0-.3.3-.1.4.3.1.4.3.6.3.3.1.4.1.6.3.3-.1.6-.4.3-.5"/><path d="M29.2 100.6c-.1-.5-.3-1 0-1.4s.8-.8 1.3-.5c1.3.5-.4 1.7-.8 2.2-.1.3.1.4.3.3.5-.4 1.4-1 1.4-1.8 0-.5-.4-1.2-.9-1.4-.6-.1-1.3.1-1.7.6-.5.6-.4 1.4 0 2.1.2.3.4.1.4-.1m16 7.9c3.7-3.8 1.7-9.8-1-13.5-.1-.3-.5 0-.4.3 2.2 4.2 4.4 8.8 1 13.1-.1.1.2.3.4.1"/><path d="M45.5 111c4.7-4.7 4.6-13.1-.4-17.7-.3-.3-.6.1-.4.4 4.6 5 4.9 11.7.5 16.9-.2.2.1.5.3.4"/><path d="M44.7 93.4c-.3.3-.5.5-.6.9-.1.3-.4.6-.4 1 0 .1.3.3.4.1.3-.3.3-.6.5-.9.1-.3.4-.5.5-.9.1-.2-.3-.4-.4-.2"/><path d="M45.1 93.4c-.3-1-1.8-1.9-2.7-.9-.8 1 .3 2.6 1.3 2.9.3 0 .5-.4.3-.5-.4-.1-.6-.4-.9-.6-.3-.3-.5-.9-.3-1.3.1-.3.6-.4.9-.3.5.1.6.5.9.9.2.2.5.1.5-.2m-6.4 54.1c3.7-.6 7.6-1.7 10.9-3.4.3-.1 0-.5-.3-.5-3.6 1.2-7.1 2.5-10.8 3.6-.1 0-.1.4.2.3"/><path d="M37.9 147.1c.5 2.6 1.6 5.1 2.6 7.5 0-.1.1-.3.1-.4-1.9.5-3.8 1.2-5.7 1.8-1 .3-2.2.5-3.1 1-.3.1-.4.1-.5.4-.5.8.5 2.2.8 2.9.6 1.7 1.2 3.4 1.9 5 .1.3.5.1.5-.3-.4-1.4-.9-2.7-1.4-4.2-.4-1-1.6-2.9-.5-3.6 1-.6 2.9-.9 4.1-1.3 1.4-.5 2.9-.9 4.5-1.4.3 0 .3-.3.1-.4-1-2.3-1.9-4.9-2.7-7.3-.3-.1-.9 0-.7.3m11-3.1c.8 2.7 1.8 5.5 2.7 8.3 0 .1.3.3.4.3 1.2-.4 2.5-.8 3.7-1.2 1-.3 3.1-1.3 4.4-.9.5 0 .8.1.8.8.1.3.1.6.3.9.1.6.4 1.2.5 1.8.4 1.3.8 2.6 1.2 4 .1.4.8.3.6-.1-.6-2.3-1.3-4.7-1.9-7.1-.5-1.6-1.2-1.2-2.6-.8-1.2.3-2.2.6-3.4.9-.8.3-2.6 1.2-3.2.6-.3-.3-.5-1.6-.6-1.9-.3-.6-.4-1.3-.6-1.9-.4-1.3-.8-2.5-1.3-3.8-.6-.3-1-.1-1 .1m-4.7-56.2s1.2-1.9.9-3.4l.4.4s.3 1.6-.8 3.1l-.5-.1z"/></g><path fill="#06A98F" d="M106.7 128.3h-.3c-.8 0-1.4.1-2.2.3-3.8.3-7.7.6-11.3 1.7 3 .5 6.2.5 8.9.5h4.8c.9 0 1.3-.6 1.3-1.3 0-.5-.4-1.2-1.2-1.2zm86.3-18.6h-.3c-.8 0-1.4.1-2.2.3-3.8.3-7.7.6-11.4 1.7 3 .5 6.2.5 8.9.5h4.8c.9 0 1.3-.6 1.3-1.3.2-.7-.2-1.2-1.1-1.2zm-83.6-4.5c-1.8-1.2-3.4-2.7-5-4.2-1.8-1.7-3.6-3.2-5.8-4.6h-.1c-.1 0-.3 0-.3.1v.3c2.2 4.6 7.1 8.4 9.7 10.2.3.1.4.3.6.3.5 0 1-.4 1.2-.9.2-.4.2-.9-.3-1.2zm77.3 32.7c-1.8-1.2-3.4-2.7-5-4.2-1.8-1.7-3.6-3.2-5.8-4.6h-.1c-.1 0-.3 0-.3.1v.3c2.2 4.6 7.1 8.4 9.7 10.2.3.1.4.3.6.3.5 0 1-.4 1.2-.9.2-.3.2-.9-.3-1.2zm-18.2 16.5l.8.9c.6.8 1.4 1.7 2.1 2.5.3.3.5.6.6.9.5.8 1 1.4 1.7 1.9.1.1.3 0 .4-.3.3-1.7-1.6-3.8-2.7-5.4-.3-.3-.4-.5-.5-.6l-.3-.4c-1.7-2.1-3.6-4.4-4.6-7.1 0-.1-.1-.3-.4-.3s-.5.1-.5.3c-.1.1-.1.3-.1.4.4 2.6 1.4 4.7 3.5 7.2zm-28.7 2.2c0-.1 0-.3-.1-.4s-.3-.3-.5-.3c-.1 0-.5 0-.6.5-.3 3.2-.1 6.8.4 10.5 0-3.5.4-7 .8-10.3zm-24.8-6.3c-.3 0-.4.1-.5.3-3 4.6-6 8.8-8.9 12.7 3.6-4 6.7-8 9.8-12.2.1-.3.3-.5.1-.6-.1 0-.4-.2-.5-.2zm80.8-66.6c-.1 0-.3 0-.4.3-4.1 3.7-8 7.1-11.8 10.2 4.4-3 8.5-6 12.5-9.4.3-.3.3-.5.3-.6-.1-.3-.3-.5-.6-.5zm-75 4.8c.1-.3.3-.5.1-1-.6-1.7-1-3.4-1.6-5l-.4-1.2c-.1-.5-.3-1-.4-1.7-.3-1.3-.6-2.5-1.2-3.7 0 0-.1-.1-.3-.1-1 4.2.6 9.3 1.8 12.6.1.4.4.6.8.6.5.2.9-.1 1.2-.5zm41.2-8.2c1-2.2 2.2-4.5 3.2-6.4 1.3-2.3 2.6-4.9 3.7-7.3h-.1c-3.7 3.6-6 8.4-8.3 13.5-.1.3-.1.4 0 .5.1.3.4.3.6.3.5-.2.7-.4.9-.6zm-21.7-10.7c0-1.3-.1-2.6-.6-3.8-.5 1.3-.4 2.6-.3 4.1v.8c.1 1.9.3 4.1.5 6.3 0 .1 0 .3.4.3.1 0 .4-.1.5-.3.1-.1.1-.3.1-.4-.3-2.2-.4-4.2-.5-6-.1-.3-.1-.6-.1-1z"/><path fill="#5C5C5C" d="M484.3 206.2c-.5 2.5-4 5-7.5 5.7-33.2 5.5-66.3 5.5-99.7 0-3.6-.5-7-3.1-7.5-5.7-6.8-29.1-6.8-58.2 0-87.3.5-2.5 4-5 7.5-5.7 33.2-5.5 66.3-5.5 99.7 0 3.6.5 7 3.1 7.5 5.7 6.7 29.1 6.7 58.2 0 87.3z"/><path fill="#C2C1C1" d="M471.9 157c-.3-16.8-20.3-30.4-45.1-30.4h-.3c-23.2.1-42.2 12.2-44.4 27.7l-.3.1s-5 42.7-5 108.8h91.7c12.5-42.6 5.3-93.4 3.4-106.2z"/><path fill="#C2C1C1" d="M312.9 204.1c-24.2 0-48.8-12.3-73-36.6l14.2-14.2c22.2 22.2 43.7 32.5 64 30.4 27.7-2.7 44.7-27.8 44.8-28.1l.4-.5.4-.5c12.9-14.8 23.3-21.2 32.9-20.2 6.2.8 10.2 4.6 12 7.9l-17.7 9.2c1.6 3 3.8 2.7 3.8 2.7s-4.7.6-15.5 13C376 172 355 200 320.4 203.5c-2.6.5-5.1.6-7.5.6z"/><path fill="#A5A5A5" d="M478.9 106.1c0 1.8-.6 3.4-1.4 3.4h-6.8c-.8 0-1.4-1.4-1.4-3.4v-19c0-1.8.6-3.4 1.4-3.4h6.8c.8 0 1.4 1.4 1.4 3.4v19z"/><path fill="#333" d="M458.3 134.3c0 1.7-12.3 9.9-32.5 10.1-20.2-.1-32.5-8.4-32.5-10.1 0-2.2 12.3 3.8 32.5 4.1 20.1-.2 32.5-6.3 32.5-4.1z"/><path fill="#858585" d="M386.9 50.7h1.9V70h-1.9z"/><circle fill="#EC2228" cx="387.9" cy="49.6" r="2.6"/><ellipse transform="rotate(-124.18 387.008 48.332)" opacity=".5" fill="#FFEDD4" cx="387" cy="48.3" rx=".6" ry="1"/><path fill="#C2C1C1" d="M474.1 96.8c0 31.3-19.3 44.4-48.4 44.4-29 0-48.4-13.1-48.4-44.4s19.3-51.6 48.4-51.6 48.4 20.3 48.4 51.6z"/><path fill="#333" d="M469.8 95.4c0 24-17.6 34.2-43.9 34.2-26.3 0-43.9-10.1-43.9-34.2s17.6-30.7 43.9-30.7c26.3 0 43.9 6.6 43.9 30.7z"/><path opacity=".6" fill="#333" d="M455 69.6c5.5 4.7 8.6 11.8 8.6 21.9 0 24-17.6 34.2-43.9 34.2-10.8 0-19.9-1.7-27.2-5.3 7.7 6.3 19.3 9.2 33.5 9.2 26.4 0 43.9-10.1 43.9-34.2-.1-13.4-5.6-21.4-14.9-25.8z"/><circle fill="#EC2228" cx="452.2" cy="130.1" r="3.2"/><g opacity=".9"><path fill="#333" d="M402.5 76.4s-11.7 4-11.2 19.6"/><path fill="#FFF" d="M391.2 99.7c-1.9 0-3.7-1.6-3.7-3.6-.5-18.3 13.1-23.1 13.8-23.2 1.9-.6 4.1.4 4.7 2.3.6 1.9-.4 4.1-2.2 4.7-.4.1-9 3.6-8.6 16 0 2.1-1.6 3.8-3.6 3.8h-.4z"/></g><path fill="#C2C1C1" d="M381.5 106.1c0 1.8-.6 3.4-1.4 3.4h-6.8c-.8 0-1.4-1.4-1.4-3.4v-19c0-1.8.6-3.4 1.4-3.4h6.8c.8 0 1.4 1.4 1.4 3.4v19z"/><path fill="#333" d="M380.3 167s.3-26.1 8.4-31.6c0 0-12.9 3.2-26.9 21.8.1-.2 3.7 7.2 18.5 9.8z"/><path fill="#BA7230" d="M238.4 157.1l-2.7 2.8-55.1-57.7 1.6-1.6z"/><path fill="#333" d="M280.5 174.4c-5.3-3.2-10.5-7.3-15.9-12l-13 15.2c6 5.1 12.1 9.6 18 13.4 3.6-3.4 7.4-8.8 10.9-16.6z"/><path fill="#A5A5A5" d="M270.6 179.9l-21.8-14.3c-.8-1.7-2.3-2.7-4.2-2.7l-1.6-1c0-.5 0-.9-.3-1.4-.8-2.3 1.4-11-.9-10.2l-5 7.5-1.3-.9c.3-.9.3-1.9 0-2.9-.8-2.3-3.4-3.6-5.8-2.7l-13.5 4.7c-2.3.8-3.6 3.4-2.7 5.8.8 2.3 3.4 3.6 5.8 2.7l2.3-.8c-1 1.2-1.4 2.9-.8 4.5.8 2.3 3.4 3.6 5.8 2.7h.1c-.3.8-.3 1.8.1 2.7.8 2.3 3.4 3.6 5.8 2.7l.6-.3c-.6 1-.8 2.5-.3 3.8.8 2.3 3.4 3.6 5.8 2.7l11.4-4.1 12.5 12.7 8-11.2zM235 158.4l-.4.1c.1-.1.1-.3.3-.3l.1.2z"/><path fill="#C2C1C1" d="M265.5 162.3s3-5.5-1.9-9.2c-5-3.7-15.7-12-15.7-12s-5.1-5-10.1 1.3c-4.9 6.3-10.7 12.6-10.7 12.6l.1.1c-1 1-1.6 2.5-1.4 4 .3 2.7 2.7 4.9 5.7 4.7 1.9-.1 3.7-1.4 4.5-3.1l4.5-5.3s-2.2 19.3 14.3 14.8l15.6 10.3 8.3-12.1-13.2-6.1z"/><path fill="#858585" d="M413.3 214.1c-.4-.1-.8.3-.9.6h-.1c.1-.4-.3-.8-.6-.9l-1.7-.3c-.4-.1-.8.3-.9.6h-.1c.1-.4-.3-.8-.6-.9l-1.8-.3-.1.8c0 .1-.1.5-.3 1-.1.4.1.8.5.9 0 .1-.1.4-.1.5-.4-.1-.8.1-1 .5-.3.6-.4 1.4-.6 1.9-.1.4 0 .8.5 1 0 .1-.1.4-.3.5-.4-.1-.8 0-1 .4-.3.6-.5 1.3-.9 1.9-.3.4 0 .8.4 1-.1.1-.1.3-.3.5-.4-.3-.8-.1-1 .3-.4.6-.8 1.2-1 1.8-.3.4-.1.8.3 1-.1.1-.3.3-.3.5-.4-.3-.8-.3-1 .1-.4.5-.9 1-1.3 1.6-.3.3-.3.8 0 1l-.4.4c-.3-.3-.8-.3-1 0-.5.5-1 .9-1.6 1.4-.3.3-.4.8-.1 1-.1.1-.3.3-.5.3-.3-.4-.8-.5-1-.3-.5.4-1.2.8-1.8 1-.4.3-.5.6-.4 1-.1.1-.4.1-.5.3-.1-.4-.6-.5-1-.4-.6.3-1.3.5-1.9.6-.4.1-.6.5-.5.9-.1 0-.4.1-.5.1-.1-.4-.5-.6-.9-.6-.6.1-1.4.3-2.1.3-.4 0-.8.4-.8.8h-.5c0-.4-.4-.8-.8-.8h-2.1c-.4 0-.8.3-.8.8h-.5c0-.4-.3-.8-.6-.9-.8-.1-1.4-.3-2.1-.4-.4-.1-.8.1-.9.5-.3 0-.4-.1-.5-.1.1-.4-.1-.8-.5-1-.6-.3-1.3-.5-1.7-.8-.4-.3-.8-.1-1 .1-.4-.4-.6-.8-.8-1l.8-.3c0-.3-.1-.5-.1-.8s0-.5.1-.9-.1-.8-.5-.9c0-.1.1-.4.1-.5h.3c.3 0 .5-.1.8-.5.3-.5.5-1.2.9-1.8.3-.4.1-.8-.3-1 .1-.1.3-.3.3-.5.1.1.3.1.4.1.3 0 .5-.1.6-.4.4-.5.8-1.2 1.2-1.7.3-.4.3-.8-.1-1 .1-.1.3-.3.4-.5.1.1.3.1.5.1.3 0 .5-.1.6-.3.4-.5.9-1 1.4-1.7.3-.3.3-.8 0-1l.4-.4c.1.1.4.3.5.3.3 0 .4-.1.5-.3.5-.5 1-1 1.4-1.6.3-.3.3-.8 0-1l.4-.4c.1.1.4.3.5.3.3 0 .4 0 .5-.3.3-.3.5-.5.8-.6l.5-.5-1.2-1.4c-.3-.3-.8-.4-1 0l-.1-.1c.3-.3.4-.8 0-1l-1.2-1.3c-.3-.3-.8-.4-1 0l-.1-.1c.3-.3.4-.8 0-1l-1.2-1.4-.5.5c-.3.1-.5.4-.8.8-.3.3-.4.8 0 1l-.4.4c-.3-.3-.8-.3-1 0l-1.6 1.6c-.3.3-.3.8 0 1l-.4.4c-.3-.3-.8-.3-1 0-.5.5-.9 1-1.4 1.6-.3.3-.3.8.1 1-.1.1-.3.3-.3.4-.4-.3-.8-.3-1 .1-.5.5-.9 1.2-1.3 1.7-.3.4-.1.8.1 1-.1.1-.3.3-.3.4-.4-.3-.8-.1-1 .3-.4.6-.8 1.2-1 1.8-.3.4-.1.8.3 1-.1.1-.1.3-.3.5-.4-.3-.8 0-1 .4-.3.6-.6 1.3-.8 1.9-.1.4 0 .8.5 1 0 .1-.1.3-.1.5-.4-.1-.8.1-.9.5-.3.8-.3 1.4-.4 2.2 0 .4.3.8.6.9v.5c-.4 0-.8.4-.8.8 0 .8.1 1.6.4 2.2.1.4.4.5.8.5h.3c0 .1.1.3.1.5-.4.3-.5.6-.4 1 .3.6.8 1.3 1.3 1.9.1.3.4.3.6.3.1 0 .4 0 .5-.1l.4.4c-.3.3-.3.8.1 1 .5.5 1.2.9 1.8 1.3.1 0 .3.1.4.1.3 0 .5-.1.6-.4.1 0 .3.1.5.3-.1.4 0 .8.4 1 .6.3 1.3.5 2.1.8h.3c.3 0 .6-.3.8-.5.1 0 .3.1.5.1-.1.4.1.8.5.9.6.1 1.4.3 2.1.4h.1c.4 0 .8-.3.8-.6h.5c0 .4.3.8.6.8.8 0 1.4.1 2.2.1.4 0 .8-.3.8-.8h.5c0 .4.4.8.8.8.6 0 1.3 0 1.9-.1h.1c.4 0 .8-.4.8-.8h.5c0 .4.4.6.8.6h.1c.8-.1 1.4-.3 2.1-.4.4-.1.6-.5.5-.9.1 0 .3-.1.5-.1.1.4.4.5.8.5h.3c.6-.3 1.4-.4 2.1-.6.4-.1.6-.6.5-1 .1 0 .3-.1.5-.3.1.3.4.5.8.5h.3c.6-.3 1.3-.6 1.9-1 .4-.3.5-.6.3-1 .1-.1.3-.1.5-.3.1.3.4.4.6.4.1 0 .3 0 .4-.1.5-.4 1.2-.8 1.8-1.3.4-.3.4-.8.1-1 .1-.1.3-.3.4-.3.1.1.4.3.5.3.3 0 .4 0 .5-.3.5-.5 1-.9 1.6-1.4.3-.3.3-.8 0-1l.4-.4c.1.1.3.3.5.3.3 0 .4-.1.5-.3.5-.5.9-1 1.4-1.7.3-.4.3-.8-.1-1 .1-.1.3-.3.3-.4.1.1.3.1.5.1.3 0 .5-.1.6-.3.1-.1.3-.3.3-.5.3-.4.5-.9.8-1.3s.1-.8-.3-1c.1-.1.1-.3.3-.5.1 0 .3.1.4.1.3 0 .5-.1.6-.4.4-.6.6-1.3 1-1.9.3-.4 0-.8-.4-1 0-.1.1-.3.3-.5h.3c.3 0 .5-.1.8-.5.3-.6.5-1.3.8-1.9.1-.4 0-.8-.5-1 0-.1.1-.3.1-.5h.3c.3 0 .6-.3.8-.5.3-.6.5-1.4.6-2.1.1-.4-.1-.8-.5-1 0-.1.1-.4.1-.5h.1c.4 0 .6-.3.8-.6.1-.6.3-1 .3-1l.1-.8-3.2-.3zm26.1 0c.4-.1.8.3.9.6h.1c-.1-.4.3-.8.6-.9l1.7-.3c.4-.1.8.3.9.6h.1c-.1-.4.3-.8.6-.9l1.8-.3.1.8c0 .1.1.5.3 1 .1.4-.1.8-.5.9 0 .1.1.4.1.5.4-.1.8.1 1 .5.3.6.4 1.4.6 1.9.1.4 0 .8-.5 1 0 .1.1.4.3.5.4-.1.8 0 1 .4.3.6.5 1.3.9 1.9.3.4 0 .8-.4 1 .1.1.1.3.3.5.4-.3.8-.1 1 .3.4.6.8 1.2 1 1.8.3.4.1.8-.3 1 .1.1.3.3.3.5.4-.3.8-.3 1 .1.4.5.9 1 1.3 1.6.3.3.3.8 0 1l.4.4c.3-.3.8-.3 1 0 .5.5 1 .9 1.6 1.4.3.3.4.8.1 1 .1.1.3.3.5.3.3-.4.8-.5 1-.3.5.4 1.2.8 1.8 1 .4.3.5.6.4 1 .1.1.4.1.5.3.1-.4.6-.5 1-.4.6.3 1.3.5 1.9.6.4.1.6.5.5.9.1 0 .4.1.5.1.1-.4.5-.6.9-.6.6.1 1.4.3 2.1.3.4 0 .8.4.8.8h.5c0-.4.4-.8.8-.8h2.1c.4 0 .8.3.8.8h.5c0-.4.3-.8.6-.9.8-.1 1.4-.3 2.1-.4.4-.1.8.1.9.5.3 0 .4-.1.5-.1-.1-.4.1-.8.5-1 .6-.3 1.3-.5 1.7-.8.4-.3.8-.1 1 .1.4-.4.6-.8.8-1l-.8-.3c0-.3.1-.5.1-.8s0-.5-.1-.9.1-.8.5-.9c0-.1-.1-.4-.1-.5h-.3c-.3 0-.5-.1-.8-.5-.3-.5-.5-1.2-.9-1.8-.3-.4-.1-.8.3-1-.1-.1-.3-.3-.3-.5-.1.1-.3.1-.4.1-.3 0-.5-.1-.6-.4-.4-.5-.8-1.2-1.2-1.7-.3-.4-.3-.8.1-1-.1-.1-.3-.3-.4-.5-.1.1-.3.1-.5.1-.3 0-.5-.1-.6-.3-.4-.5-.9-1-1.4-1.7-.3-.3-.3-.8 0-1l-.4-.4c-.1.1-.4.3-.5.3-.3 0-.4-.1-.5-.3-.5-.5-1-1-1.4-1.6-.3-.3-.3-.8 0-1l-.4-.4c-.1.1-.4.3-.5.3-.3 0-.4 0-.5-.3-.3-.3-.5-.5-.8-.6l-.5-.5 1.2-1.4c.3-.3.8-.4 1 0l.1-.1c-.3-.3-.4-.8 0-1l1.2-1.3c.3-.3.8-.4 1 0l.1-.1c-.3-.3-.4-.8 0-1l1.2-1.4.5.5c.3.1.5.4.8.8.3.3.4.8 0 1l.4.4c.3-.3.8-.3 1 0l1.6 1.6c.3.3.3.8 0 1l.4.4c.3-.3.8-.3 1 0 .5.5.9 1 1.4 1.6.3.3.3.8-.1 1 .1.1.3.3.3.4.4-.3.8-.3 1 .1.5.5.9 1.2 1.3 1.7.3.4.1.8-.1 1 .1.1.3.3.3.4.4-.3.8-.1 1 .3.4.6.8 1.2 1 1.8.3.4.1.8-.3 1 .1.1.1.3.3.5.4-.3.8 0 1 .4.3.6.6 1.3.8 1.9.1.4 0 .8-.5 1 0 .1.1.3.1.5.4-.1.8.1.9.5.3.8.3 1.4.4 2.2 0 .4-.3.8-.6.9v.5c.4 0 .8.4.8.8 0 .8-.1 1.6-.4 2.2-.1.4-.4.5-.8.5h-.3c0 .1-.1.3-.1.5.4.3.5.6.4 1-.3.6-.8 1.3-1.3 1.9-.1.3-.4.3-.6.3-.1 0-.4 0-.5-.1l-.4.4c.3.3.3.8-.1 1-.5.5-1.2.9-1.8 1.3-.1 0-.3.1-.4.1-.3 0-.5-.1-.6-.4-.1 0-.3.1-.5.3.1.4 0 .8-.4 1-.6.3-1.3.5-2.1.8h-.3c-.3 0-.6-.3-.8-.5-.1 0-.3.1-.5.1.1.4-.1.8-.5.9-.6.1-1.4.3-2.1.4h.2c-.4 0-.8-.3-.8-.6h-.5c0 .4-.3.8-.6.8-.8 0-1.4.1-2.2.1-.4 0-.8-.3-.8-.8h-.5c0 .4-.4.8-.8.8-.6 0-1.3 0-1.9-.1h-.1c-.4 0-.8-.4-.8-.8h-.5c0 .4-.4.6-.8.6h-.1c-.8-.1-1.4-.3-2.1-.4-.4-.1-.6-.5-.5-.9-.1 0-.3-.1-.5-.1-.1.4-.4.5-.8.5h-.3c-.6-.3-1.4-.4-2.1-.6-.4-.1-.6-.6-.5-1-.1 0-.3-.1-.5-.3-.1.3-.4.5-.8.5h-.3c-.6-.3-1.3-.6-1.9-1-.4-.3-.5-.6-.3-1-.1-.1-.3-.1-.5-.3-.1.3-.4.4-.6.4-.1 0-.3 0-.4-.1-.5-.4-1.2-.8-1.8-1.3-.4-.3-.4-.8-.1-1-.1-.1-.3-.3-.4-.3-.1.1-.4.3-.5.3-.3 0-.4 0-.5-.3-.5-.5-1-.9-1.6-1.4-.3-.3-.3-.8 0-1l-.4-.4c-.1.1-.3.3-.5.3-.3 0-.4-.1-.5-.3-.5-.5-.9-1-1.4-1.7-.3-.4-.3-.8.1-1-.1-.1-.3-.3-.3-.4-.1.1-.3.1-.5.1s-.5-.1-.6-.3-.3-.3-.3-.5c-.3-.4-.5-.9-.8-1.3-.3-.4-.1-.8.3-1-.1-.1-.1-.3-.3-.5-.1 0-.3.1-.4.1-.3 0-.5-.1-.6-.4-.4-.6-.6-1.3-1-1.9-.3-.4 0-.8.4-1 0-.1-.1-.3-.3-.5h-.3c-.3 0-.5-.1-.8-.5-.3-.6-.5-1.3-.8-1.9-.1-.4 0-.8.5-1 0-.1-.1-.3-.1-.5h-.3c-.3 0-.6-.3-.8-.5-.3-.6-.5-1.4-.6-2.1-.1-.4.1-.8.5-1 0-.1-.1-.4-.1-.5h.2c-.4 0-.6-.3-.8-.6-.1-.6-.3-1-.3-1l-.1-.8 2.6-.3z"/><path fill="#A5A5A5" d="M459.4 208.1c-.8 2.6-5 5.3-9.2 5.8-15.3 1.8-30.7 1.8-46.2 0-4.2-.5-8.4-3.2-9.2-5.8-2.9-11-2.9-21.9 0-32.9.8-2.6 5-5.3 9.2-5.8 15.3-1.8 30.7-1.8 46.2 0 4.2.5 8.4 3.2 9.2 5.8 2.8 11.1 2.8 22.1 0 32.9z"/><path fill="#C2C1C1" d="M456.3 202.9c-.6 2.1-4.5 4.4-8.3 4.7-13.9 1.4-27.8 1.4-41.7 0-3.8-.4-7.6-2.6-8.3-4.7-2.5-8.9-2.5-17.9 0-26.8.6-2.1 4.5-4.4 8.3-4.7 13.9-1.4 27.8-1.4 41.7 0 3.8.4 7.6 2.6 8.3 4.7 2.6 9 2.6 17.8 0 26.8z"/><circle fill="#BC2026" cx="412" cy="184.7" r="7.5"/><circle fill="#EC2228" cx="412" cy="183.1" r="5.3"/><circle fill="#BC2026" cx="442.5" cy="184.7" r="7.5"/><circle fill="#EC2228" cx="442.5" cy="183.1" r="5.3"/><path fill="#C2C1C1" d="M377.3 223.3s0-14.7.5-17.2l12.5 10.5-13 6.7zm98.1 1.3s.5-15.7.3-18.3l-8.6 11.3 8.3 7z"/><path fill="#C2C1C1" d="M473.9 142.7c-4.7-4.7-11-6.7-16.8-7.9-3 2.6-7.2 5-10.2 7.5l-.6 10.9c5.3.3 12.1 2.1 13.5 3.6 1.3 1.3 37.5 42 39.4 45.8.6 1.4-1.7 7.3-24 20.7-13.5 8.1-30 10.5-30.1 10.5l2.5 16.5c.5-.3 24-1.2 38.7-10.3 22.9-14.4 33.8-27.8 33.7-35.4-.3-6-44-59.9-46.1-61.9z"/><path fill="#333" d="M473 173.4s-4.7-32.7-12.9-38.1c0 0 9.2 2.2 13.1 6.7 0 0 7.9 8.1 12.6 14.7.1.2-7.5 13.2-12.8 16.7zm-6.7 54.6c-10.8 4.7-21.1 5.7-21.2 5.7l2.5 16.5c.4-.3 12.5-.5 24.5-4.1-.6-6.6-4.1-14.6-5.8-18.1z"/><path fill="#C2C1C1" d="M434.1 250.9c.1 2.7-1.7 5-4.1 5.1-2.3.1-4.5-1.9-4.6-4.6l-.9-16.5c-.1-2.7 1.7-5 4.1-5.1 2.3-.1 4.5 1.9 4.6 4.6l.9 16.5z"/><path fill="#A5A5A5" d="M453.1 222.8s5.9-1.4 8 9.4c2.2 10.9 3.4 21.5-1 22.9-4.6 1.6-17 1-17 1l-5.8-27.6 15.8-5.7z"/><g fill="#A5A5A5"><path d="M457.2 226.5c.4 2.5-1.2 4.7-3.6 5.3l-20.6 3.8c-2.5.4-4.7-1.2-5.3-3.6-.4-2.5 1.2-4.7 3.6-5.3l20.6-3.8c2.5-.5 4.8 1.2 5.3 3.6z"/><path d="M458.5 234.1c.4 2.5-1.4 4.7-4.1 5.3l-22.8 4.2c-2.7.5-5.3-1-5.7-3.6-.4-2.5 1.4-4.7 4.1-5.3l22.8-4.2c2.8-.3 5.3 1.2 5.7 3.6z"/><path d="M460.1 242.4c.4 2.5-1.2 4.7-3.8 5.3l-21.4 4c-2.5.5-5-1-5.4-3.6-.4-2.5 1.2-4.7 3.8-5.3l21.4-4c2.5-.3 4.9 1.2 5.4 3.6z"/><path d="M461.5 250.4c.4 2.5-1 4.7-3.4 5.1l-19.8 3.6c-2.3.4-4.6-1.2-5-3.6-.4-2.5 1-4.7 3.4-5.1l19.8-3.6c2.4-.5 4.6 1.2 5 3.6z"/></g><path fill="#333" d="M452.4 227.3c.3 1.7-.4 3.2-1.7 4.2 1.6.5 2.7 1.7 3 3.1.4 1.8-.8 3.7-2.5 4.6 1.9.1 3.7 1.6 4.1 3.4.3 1.7-.5 3.2-1.8 4.2 1.7.4 3 1.7 3.2 3.4.4 1.9-.6 4-2.5 4.7.6-.1 1.3-.5 1.7-.9.8-.9 1.2-2.2 1.4-3.8v-.1c-.3-1.7-1.7-3-3.2-3.4 1.4-.9 2.2-2.5 1.8-4.2-.4-1.9-2.1-3.2-4.1-3.4 1.8-.9 2.9-2.7 2.5-4.6-.3-1.6-1.4-2.7-3-3.1 1.3-.9 1.9-2.5 1.7-4.2 0-.3-.1-.5-.3-.8-1-1.2-2.1-1.9-3-2.2 1.4.5 2.5 1.7 2.7 3.1z"/><path fill="#06A98F" d="M176.8 78.6c.5-1-1-1.8-1-1.8s-.8-.3-1-.5c-.1-.3-.6 0-.9.3-8.1 10.8-17.2 21.2-25.9 31.3l-2.6 3c-.9 1-1.8 2.2-2.7 3.6-1.9 2.5-3.8 5-6 7l-.6.5-.5-.6c-.1-.1-.3-.4-.5-.5-1.8-2.1-4.2-4.1-6.4-5.9-1.8-1.6-3.7-3-5.3-4.7-.3-.3-.5-.4-.8-.4s-.5.1-.6.3l-.1.1h-.1c-.5.1-1.2.5-1 1.6 1.2 14.3 9.3 27.2 15.3 35.5.4.5 1 .9 1.8.9.4 0 1-.1 1.4-.9 9.4-16.8 19-34.1 28.2-50.7 2.7-6.1 6-12.2 9.3-18.1zm-20.5 30.9c-6.2 10.1-13 22-18.8 32.3l-.6 1-.6-1c-6.2-9-9.8-16.8-11.4-24.2l-.6-2.7 1.9 2.1c2.9 3 5.8 5.8 8.6 8.1.4.3.8.5 1.3.5.4 0 .8-.1.9-.4 12.6-14.2 23.7-27.8 35.5-43.4.1-.2-10.3 18.2-16.2 27.7z"/></svg>