<svg xmlns="http://www.w3.org/2000/svg" viewBox="1.9 539.2 800.1 255.8"><path fill="#08223B" d="M2.185 660.807l.1-8.1 3.2-1.1c1.8-.6 4.9-1.4 7-1.7 3.5-.5 5.2-1.1 12.1-4.5 1.6-.8 3.6-1.6 4.5-1.7 1.5-.3 8.2-3.2 9.8-4.2.4-.3 1.2-.7 1.8-.9.6-.2 2-1.1 3.2-1.9 1.2-.8 3.8-2.1 5.7-2.8 1.9-.8 3.8-1.7 4.3-2.1.4-.4 1.5-.9 2.4-1.3.9-.3 1.6-.7 1.6-.9s1-.7 2.1-1.1c1.2-.4 3.1-1.6 4.3-2.8s2.5-2.1 2.9-2.1c.7 0 1.2-.8 2.7-4.7.4-.9 1.2-1.7 2.5-2.2 1.2-.5 2-1.2 2-1.7s.4-.9.9-.9c1 0 2.3-1.8 1.8-2.5-.2-.3 0-.9.5-1.4.4-.5.9-1.4 1-2 .2-1.2 3.5-4.5 4.6-4.5s2.8-4.5 2.8-7.7c0-1.4.3-2.4 1-3.1.5-.6 1-1.4 1-1.8 0-.4.7-1.6 1.5-2.7 1.3-1.8 1.8-2.1 4.9-2.8 1.9-.4 4.3-.9 5.3-1 1.1-.1 2.1-.4 2.2-.7.5-.8 5.4-3 8.3-3.8.6-.2 3.4 0 6.2.4 2.8.4 6.7.7 8.7.8 7 0 12.2 1.1 14.5 3 1.6 1.4 4.1 2.1 5.9 1.8.9-.1 1.9 0 2.2.3.3.3 2.2.6 4.3.7s4 .3 4.2.4c.2.1.7-.1 1-.5.4-.5.9-.6 1.8-.2 1.6.6 1.7.6 1.7-.4 0-.8.1-.8.7 0 .6.9.8.8 3.2-.2 2.3-1 2.6-1.3 3.1-3.4.9-3.6 2.1-4.5 5.8-4.5 2 0 4.1.4 5.8 1.1 1.8.7 4.2 1.1 7.6 1.3 5 .2 8.3 1.1 15.1 3.8 3.9 1.6 12.7 2.9 14.5 2.2.7-.3 3.8-.6 6.8-.7s7.1-.5 9.1-1c2.6-.6 5-.7 8.7-.5 4.9.3 8.9-.1 13.1-1.3 1.1-.3 4.4-.7 7.2-.8 2.9-.2 6-.5 6.8-.8.9-.3 3.6-.4 6-.4 2.4.1 11.6.1 20.4 0 12.7-.1 16.7.1 19.5.7 1.9.4 4.1.8 4.9.8.8 0 2.7.6 4.2 1.3 1.5.7 3.5 1.3 4.3 1.4s2 .3 2.6.7c1.4.8 5.5 2.1 6.7 2.1.5 0 2.1.7 3.5 1.7 1.4.9 4.2 2.2 6.1 2.8 1.9.6 4.7 1.6 6.3 2.1 1.5.5 3.7.9 4.8.9s2.2.2 2.4.5 1.1.5 2.1.5 2.8.2 4.1.5c1.2.3 3.7.7 5.5 1 4.5.7 9 1.7 10.7 2.4 3.1 1.3 6.1 2.7 8.5 3.9 1.4.7 3.7 1.7 5.2 2.2 1.5.5 3.2 1.3 3.9 1.7 1.4.9 6.8 1.7 8.8 1.2 1.5-.3 4.4-1.7 10-4.6 1.4-.7 3-1.9 3.7-2.6.7-.7 1.4-1.3 1.7-1.3.3 0 1.9-.6 3.5-1.3 4.1-1.8 7.7-2.8 9.4-2.7.8 0 1.7-.1 2-.4.9-.7 6.7-1.7 11.4-1.9 3.6-.2 4.4-.1 4.8.6.3.6.8.7 1.9.5.8-.2 2.2-.4 3.1-.6.9-.1 2.5-.6 3.4-1 .9-.4 1.9-.7 2.1-.5.2.2 1.1 0 1.9-.3.8-.3 1.6-.5 1.9-.5.3.1.9-.1 1.5-.4.6-.3 2.7-1 4.8-1.6s4-1.3 4.3-1.5c.9-.7 3.4-.6 6.2.2 2.3.7 12.1 1.8 15.8 1.8.6 0 1.6-.4 2.2-1 .6-.5 1.6-1 2.2-1 .6 0 1.5-.3 2-.7.5-.4 2-.7 3.3-.7s2.9-.2 3.5-.5c.6-.2 3.9-.6 7.1-.8 3.3-.2 7.9-.5 10.2-.6 2.3-.1 5.2-.3 6.5-.2 6.4.2 9.8 0 10.7-.5.7-.4 1.5-.5 2.5-.2.8.2 2.3.7 3.2 1 1.3.4 1.8.4 1.9-.1.3-.8 4.4-5 6.7-6.7 1-.8 2.8-1.6 4-1.9 1.9-.4 11.4-1.1 13.4-1 .5 0 1.3.1 1.7.1 1.3.1 4.4-.4 5-.7.3-.2.9 0 1.4.3.7.5 1.3.4 3.3-.5 1.3-.6 2.6-1.4 2.7-1.6.5-.8 2.2-.6 2.6.3.2.4.9.7 1.7.7.8 0 1.6.2 1.7.5.2.3 1.4.5 2.7.5 2.6 0 8.7 2.8 11.3 5.2.8.7 2.3 1.6 3.4 1.9 1.3.4 2.1 1 2.4 1.7.5 1.2 1.5 1.6 1.5.6 0-.3.5-.2 1 .4.8.7 1.1.8 1.4.3.2-.4 1.5-.6 3.3-.6 9.4.1 16.6-.3 20.8-.9 1.5-.2 3.8-.4 5-.3 1.2.1 2.5-.1 2.9-.4.4-.4.6-.3.6 0 0 .6 2.8.7 10.5.5 2-.1 3 0 5 .5 1 .2 2.9.5 4.2.7 3.6.4 7.1 1.3 10.2 2.6 1.5.7 3 1.2 3.4 1.2 1 0 5.1 4.6 6.6 7.4.9 1.7 1.6 2.3 2.6 2.4.8.1 1.4.4 1.4.7 0 .3.6.4 1.3.3.7-.1 2.4 0 3.6.4 1.2.4 3.6 1.1 5.2 1.5 1.6.5 3.1 1.2 3.4 1.8.3.5.8.9 1.2.9.7 0 1.3 1.1 1.3 2.4 0 .5.5 1.4 1.1 1.9.9.8 1.7 1.1 3.6 1 5.5-.2 9.4 1 12.5 4 .6.6 1.2 1.1 1.4 1.1.2 0 1 .5 1.9 1.2.9.6 2.2 1.3 2.9 1.5.7.2 2.6 1.7 4.1 3.3 1.6 1.7 3.1 3 3.3 3 .2 0 .6.3.8.6.5.9 2.4 1.9 3.5 1.9.5 0 2 .7 3.4 1.5s2.9 1.5 3.4 1.5 2 .5 3.2 1.1c2.2 1 2.9 1.5 6.7 4.5.8.6 1.8 1.8 2.4 2.7.5.9 2.2 2.4 3.7 3.4s2.8 2 3 2.3c.4.7 8.4 5.9 9.1 5.9 1 0 9.3 4.6 10.7 5.9 1.3 1.3 1.4 1.4 1.4 7.2v131.6h-800l2.3-133.7z"/><path fill="#0E2943" d="M801.985 795.107v-72.3h-38v-29.3h-21v-19.5h-21.7v34.3h-22.9v36.7h-16.3v-69.5h-38v-29.3h-21v-19.4h-21.7v34.3h-23v36.6h-18.8v47.7h-310.6v-72h-53.4v22.5h-28.2v49.5h-21.5v-59.7h-27.9v-21.5h-15.5v-14.3h-15.9v25.1h-16.9v26.9h-13.8v21h-34.4v-29.2h-19.3v101.4z"/><g fill="#091F38"><path d="M555 668h1v96h-1z"/><path d="M547 668h9v2h-9z"/><path d="M547.1 675.9l.1 1 8.5-6.8-.2-1z"/><path d="M555.7 675.9l-.2 1-8.4-6.8.1-1z"/><path d="M547.1 682.4l.1.9 8.5-6.6-.2-1z"/><path d="M555.7 682.4l-.2.9-8.4-6.6.1-1z"/><path d="M547.1 689l.1.9 8.5-6.7-.2-.9z"/><path d="M555.7 689l-.2.9-8.4-6.7.1-.9z"/><path d="M547.1 695.5l.1 1 8.5-6.8-.2-1z"/><path d="M555.7 695.5l-.2 1-8.4-6.8.1-1z"/><path d="M547.1 702l.1 1 8.5-6.7-.2-1z"/><path d="M555.7 702l-.2 1-8.4-6.7.1-1z"/><path d="M547.1 708.6l.1 1 8.5-6.7-.2-1z"/><path d="M555.7 708.6l-.2 1-8.4-6.7.1-1z"/><path d="M547.1 715.2l.1 1 8.5-6.8-.2-1z"/><path d="M555.7 715.2l-.2 1-8.4-6.8.1-1z"/><path d="M547.1 721.7l.1.9 8.5-6.7-.2-.9z"/><path d="M555.7 721.7l-.2.9-8.4-6.7.1-.9z"/><path d="M547.1 728.3l.1.9 8.5-6.7-.2-.9z"/><path d="M555.7 728.3l-.2.9-8.4-6.7.1-.9z"/><path d="M547.1 734.8l.1 1 8.5-6.8-.2-1z"/><path d="M555.7 734.8l-.2 1-8.4-6.8.1-1z"/><path d="M547.1 741.3l.1 1 8.5-6.7-.2-1z"/><path d="M555.7 741.3l-.2 1-8.4-6.7.1-1z"/><path d="M547.1 747.9l.1 1 8.5-6.7-.2-1z"/><path d="M555.7 747.9l-.2 1-8.4-6.7.1-1z"/><path d="M547.1 754.5l.1 1 8.5-6.7-.2-1.1z"/><path d="M555.7 754.5l-.2 1-8.4-6.7.1-1.1z"/><path d="M547.1 761l.1 1 8.5-6.8-.2-.9z"/><path d="M555.7 761l-.2 1-8.4-6.8.1-.9z"/></g><g fill="#091F38"><path d="M266 677h95v1h-95z"/><path d="M360 669h1v9h-1z"/><path d="M354 669.3l-1 .2 6.7 8.4 1-.1z"/><path d="M354 677.9l-1-.1 6.7-8.5 1 .2z"/><path d="M347.4 669.3l-1 .2 6.8 8.4 1-.1z"/><path d="M347.4 677.9l-1-.1 6.8-8.5 1 .2z"/><path d="M340.9 669.3l-1.1.2 6.8 8.4 1-.1z"/><path d="M340.9 677.9l-1.1-.1 6.8-8.5 1 .2z"/><path d="M334.3 669.3l-.9.2 6.7 8.4.9-.1z"/><path d="M334.3 677.9l-.9-.1 6.7-8.5.9.2z"/><path d="M327.7 669.3l-.9.2 6.7 8.4 1.1-.1z"/><path d="M327.7 677.9l-.9-.1 6.7-8.5 1.1.2z"/><path d="M321.2 669.3l-.9.2 6.7 8.4 1-.1z"/><path d="M321.2 677.9l-.9-.1 6.7-8.5 1 .2z"/><path d="M314.7 669.3l-1 .2 6.7 8.4 1-.1z"/><path d="M314.7 677.9l-1-.1 6.7-8.5 1 .2z"/><path d="M308.1 669.3l-1 .2 6.8 8.4.9-.1z"/><path d="M308.1 677.9l-1-.1 6.8-8.5.9.2z"/><path d="M301.6 669.3l-1.1.2 6.8 8.4 1-.1z"/><path d="M301.6 677.9l-1.1-.1 6.8-8.5 1 .2z"/><path d="M295 669.3l-.9.2 6.7 8.4.9-.1z"/><path d="M295 677.9l-.9-.1 6.7-8.5.9.2z"/><path d="M288.5 669.3l-1 .2 6.7 8.4.9-.1z"/><path d="M288.5 677.9l-1-.1 6.7-8.5.9.2z"/><path d="M281.9 669.3l-1 .2 6.8 8.4 1-.1z"/><path d="M281.9 677.9l-1-.1 6.8-8.5 1 .2z"/><path d="M275.4 669.3l-1 .2 6.7 8.4 1-.1z"/><path d="M275.4 677.9l-1-.1 6.7-8.5 1 .2z"/><path d="M268.8 669.3l-1 .2 6.7 8.4 1-.1z"/><path d="M268.8 677.9l-1-.1 6.7-8.5 1 .2z"/><path d="M266 668h95v2h-95z"/></g><g fill="#091F38"><path d="M359 677h95v1h-95z"/><path d="M447.1 669.3l-.9.2 6.8 8.4.9-.1z"/><path d="M447.1 677.9l-.9-.1 6.8-8.5.9.2z"/><path d="M440.7 669.3l-1.1.2 6.8 8.4 1-.1z"/><path d="M440.7 677.9l-1.1-.1 6.8-8.5 1 .2z"/><path d="M434.1 669.3l-1 .2 6.7 8.4 1-.1z"/><path d="M434.1 677.9l-1-.1 6.7-8.5 1 .2z"/><path d="M427.5 669.3l-1 .2 6.7 8.4 1-.1z"/><path d="M427.5 677.9l-1-.1 6.7-8.5 1 .2z"/><path d="M421 669.3l-1 .2 6.7 8.4 1-.1z"/><path d="M421 677.9l-1-.1 6.7-8.5 1 .2z"/><path d="M414.4 669.3l-.9.2 6.7 8.4.9-.1z"/><path d="M414.4 677.9l-.9-.1 6.7-8.5.9.2z"/><path d="M407.8 669.3l-.9.2 6.7 8.4 1-.1z"/><path d="M407.8 677.9l-.9-.1 6.7-8.5 1 .2z"/><path d="M401.3 669.3l-1 .2 6.8 8.4 1-.1z"/><path d="M401.3 677.9l-1-.1 6.8-8.5 1 .2z"/><path d="M394.8 669.3l-1 .2 6.7 8.4 1-.1z"/><path d="M394.8 677.9l-1-.1 6.7-8.5 1 .2z"/><path d="M388.2 669.3l-1 .2 6.7 8.4 1-.1z"/><path d="M388.2 677.9l-1-.1 6.7-8.5 1 .2z"/><path d="M381.6 669.3l-1 .2 6.8 8.4 1-.1z"/><path d="M381.6 677.9l-1-.1 6.8-8.5 1 .2z"/><path d="M375.1 669.3l-.9.2 6.7 8.4.9-.1z"/><path d="M375.1 677.9l-.9-.1 6.7-8.5.9.2z"/><path d="M368.6 669.3l-1 .2 6.7 8.4.9-.1z"/><path d="M368.6 677.9l-1-.1 6.7-8.5.9.2z"/><path d="M362 669.3l-1 .2 6.8 8.4 1-.1z"/><path d="M362 677.9l-1-.1 6.8-8.5 1 .2z"/><path d="M359 668h95v2h-95z"/></g><g fill="#091F38"><path d="M452 677h95v1h-95z"/><path d="M546 669h1v9h-1z"/><path d="M540.3 669.3l-1 .2 6.8 8.4 1-.1z"/><path d="M540.3 677.9l-1-.1 6.8-8.5 1 .2z"/><path d="M533.8 669.3l-.9.2 6.6 8.4 1-.1z"/><path d="M533.8 677.9l-.9-.1 6.6-8.5 1 .2z"/><path d="M527.2 669.3l-.9.2 6.7 8.4.9-.1z"/><path d="M527.2 677.9l-.9-.1 6.7-8.5.9.2z"/><path d="M520.8 669.3l-1.1.2 6.8 8.4 1-.1z"/><path d="M520.8 677.9l-1.1-.1 6.8-8.5 1 .2z"/><path d="M514.2 669.3l-1 .2 6.7 8.4 1-.1z"/><path d="M514.2 677.9l-1-.1 6.7-8.5 1 .2z"/><path d="M507.6 669.3l-1 .2 6.7 8.4 1.1-.1z"/><path d="M507.6 677.9l-1-.1 6.7-8.5 1.1.2z"/><path d="M501 669.3l-1 .2 6.8 8.4 1-.1z"/><path d="M501 677.9l-1-.1 6.8-8.5 1 .2z"/><path d="M494.5 669.3l-.9.2 6.7 8.4.9-.1z"/><path d="M494.5 677.9l-.9-.1 6.7-8.5.9.2z"/><path d="M487.9 669.3l-.9.2 6.7 8.4.9-.1z"/><path d="M487.9 677.9l-.9-.1 6.7-8.5.9.2z"/><path d="M481.5 669.3l-1.1.2 6.7 8.4 1.1-.1z"/><path d="M481.5 677.9l-1.1-.1 6.7-8.5 1.1.2z"/><path d="M474.9 669.3l-1 .2 6.7 8.4 1-.1z"/><path d="M474.9 677.9l-1-.1 6.7-8.5 1 .2z"/><path d="M468.3 669.3l-1 .2 6.7 8.4 1.1-.1z"/><path d="M468.3 677.9l-1-.1 6.7-8.5 1.1.2z"/><path d="M461.7 669.3l-1 .2 6.8 8.4 1-.1z"/><path d="M461.7 677.9l-1-.1 6.8-8.5 1 .2z"/><path d="M455.2 669.3l-1 .2 6.8 8.4.9-.1z"/><path d="M455.2 677.9l-1-.1 6.8-8.5.9.2z"/><path d="M452 668h95v2h-95z"/></g><g fill="#0E2943"><path d="M276.6 727.3c0-1.2.9-2.1 2.1-2.1s2.1.9 2.1 2.1c0 1.2-.9 2.1-2.1 2.1s-2.1-1-2.1-2.1z"/><path d="M277.1 727.3c0-.9.6-1.5 1.5-1.5s1.5.6 1.5 1.5-.6 1.5-1.5 1.5c-.8 0-1.5-.8-1.5-1.5zm17.1 0c0-1.2.9-2.1 2.1-2.1s2.1.9 2.1 2.1c0 1.2-.9 2.1-2.1 2.1s-2.1-1-2.1-2.1z"/><path d="M294.8 727.3c0-.9.6-1.5 1.5-1.5s1.5.6 1.5 1.5-.6 1.5-1.5 1.5c-.8 0-1.5-.8-1.5-1.5z"/></g><path fill="#091F38" d="M272 745h14v11h-14zm17 0h14v11h-14z"/><ellipse transform="rotate(-42.495 268.35 661.35)" cx="268.3" cy="661.3" rx=".6" ry="1.8"/><ellipse transform="rotate(-42.512 262.044 667.034)" cx="262" cy="667" rx=".6" ry="1.8"/><path d="M269.451 662.56l-6.266 5.744-2.432-2.654 6.266-5.744z"/><linearGradient id="a" gradientUnits="userSpaceOnUse" x1="-3614.873" y1="2536.74" x2="-3613.953" y2="2536.74" gradientTransform="matrix(-.8356 .7663 .7663 .8356 -4695.987 1311.304)"><stop offset="0" stop-color="#e6e630"/><stop offset="1" stop-color="#f5c415"/></linearGradient><path fill="url(#a)" d="M267.8 661.8c.5.5 1.2.9 1.4.6.2-.2 0-.9-.6-1.4-.5-.5-1.2-.9-1.4-.6-.2.1.1.7.6 1.4z"/><ellipse transform="rotate(-42.495 266.573 661.47)" cx="266.6" cy="661.4" rx=".6" ry="1.8"/><ellipse transform="rotate(-42.495 260.267 667.256)" cx="260.3" cy="667.2" rx=".6" ry="1.8"/><path d="M267.649 662.746l-6.266 5.744-2.433-2.654 6.266-5.744z"/><linearGradient id="b" gradientUnits="userSpaceOnUse" x1="-3613.611" y1="2535.751" x2="-3612.69" y2="2535.751" gradientTransform="matrix(-.8356 .7663 .7663 .8356 -4695.987 1311.304)"><stop offset="0" stop-color="#e6e630"/><stop offset="1" stop-color="#f5c415"/></linearGradient><path fill="url(#b)" d="M266 661.9c.5.5 1.2.9 1.4.6.2-.2 0-.9-.5-1.4-.5-.5-1.2-.9-1.4-.6-.3.2 0 .8.5 1.4z"/><ellipse transform="rotate(-42.524 264.7 661.549)" cx="264.7" cy="661.6" rx=".6" ry="1.8"/><ellipse transform="rotate(-42.507 258.447 667.296)" cx="258.4" cy="667.3" rx=".6" ry="1.8"/><path d="M265.895 662.849l-6.266 5.744-2.433-2.654 6.266-5.744z"/><linearGradient id="c" gradientUnits="userSpaceOnUse" x1="-3612.383" y1="2534.727" x2="-3611.463" y2="2534.727" gradientTransform="matrix(-.8356 .7663 .7663 .8356 -4695.987 1311.304)"><stop offset="0" stop-color="#e6e630"/><stop offset="1" stop-color="#f5c415"/></linearGradient><path fill="url(#c)" d="M264.2 662c.5.5 1.2.9 1.4.6.2-.2 0-.9-.5-1.4-.5-.5-1.2-.9-1.4-.6-.3.2 0 .8.5 1.4z"/><linearGradient id="d" gradientUnits="userSpaceOnUse" x1="-4134.547" y1="727.758" x2="-4086.957" y2="727.758" gradientTransform="matrix(-1.1336 0 0 1.1336 -4369.797 -195.72)"><stop offset="0" stop-color="#f5ffff" stop-opacity="0"/><stop offset="1" stop-color="#fff"/></linearGradient><path opacity=".1" fill="url(#d)" d="M263.6 660.6l49.1-64.8 4.7 8.5-51.9 58.4c-.2.2-.9-.1-1.4-.6-.5-.7-.7-1.3-.5-1.5z"/><linearGradient id="e" gradientUnits="userSpaceOnUse" x1="-4136.163" y1="727.663" x2="-4088.573" y2="727.663" gradientTransform="matrix(-1.1336 0 0 1.1336 -4369.797 -195.72)"><stop offset="0" stop-color="#f5ffff" stop-opacity="0"/><stop offset="1" stop-color="#fff"/></linearGradient><path opacity=".3" fill="url(#e)" d="M265.5 660.5l49.1-64.8 4.7 8.5-51.9 58.4c-.2.2-.9-.1-1.4-.6-.5-.7-.8-1.3-.5-1.5z"/><linearGradient id="f" gradientUnits="userSpaceOnUse" x1="-4137.702" y1="727.568" x2="-4090.111" y2="727.568" gradientTransform="matrix(-1.1336 0 0 1.1336 -4369.797 -195.72)"><stop offset="0" stop-color="#f5ffff" stop-opacity="0"/><stop offset="1" stop-color="#fff"/></linearGradient><path opacity=".2" fill="url(#f)" d="M267.2 660.3l49.1-64.8 4.7 8.5-51.9 58.4c-.2.2-.9-.1-1.4-.6-.5-.7-.7-1.3-.5-1.5z"/><ellipse transform="rotate(-137.497 542.905 631.539)" cx="542.9" cy="631.5" rx=".9" ry="2.5"/><ellipse transform="rotate(-137.493 551.681 639.635)" cx="551.7" cy="639.6" rx=".9" ry="2.5"/><path d="M544.535 629.737l8.918 8.176-3.378 3.685-8.919-8.176z"/><linearGradient id="g" gradientUnits="userSpaceOnUse" x1="31.236" y1="-842.455" x2="32.531" y2="-842.455" gradientTransform="matrix(.8356 .7663 -.7663 .8356 -129.11 1311.304)"><stop offset="0" stop-color="#e6e630"/><stop offset="1" stop-color="#f5c415"/></linearGradient><path fill="url(#g)" d="M543.5 632.2c-.8.9-1.6 1.3-1.9 1-.3-.2.1-1.2.9-2.1.8-.9 1.6-1.3 1.9-1 .3.3 0 1.2-.9 2.1z"/><ellipse transform="rotate(-137.497 545.35 631.81)" cx="545.3" cy="631.8" rx=".9" ry="2.5"/><ellipse transform="rotate(-137.493 554.197 639.809)" cx="554.2" cy="639.8" rx=".9" ry="2.5"/><path d="M546.944 629.96l8.92 8.177-3.38 3.686-8.919-8.177z"/><linearGradient id="h" gradientUnits="userSpaceOnUse" x1="33.013" y1="-843.788" x2="34.307" y2="-843.788" gradientTransform="matrix(.8356 .7663 -.7663 .8356 -129.11 1311.304)"><stop offset="0" stop-color="#e6e630"/><stop offset="1" stop-color="#f5c415"/></linearGradient><path fill="url(#h)" d="M546.1 632.5c-.8.9-1.6 1.3-1.9 1-.3-.2.1-1.2.9-2.1.8-.9 1.6-1.3 1.9-1 .2.3-.1 1.2-.9 2.1z"/><ellipse transform="rotate(-137.493 547.9 631.972)" cx="547.9" cy="632" rx=".9" ry="2.5"/><ellipse transform="rotate(-137.497 556.691 640.017)" cx="556.7" cy="640" rx=".9" ry="2.5"/><path d="M549.495 630.056l8.919 8.177-3.38 3.686-8.918-8.177z"/><linearGradient id="i" gradientUnits="userSpaceOnUse" x1="34.739" y1="-845.198" x2="36.032" y2="-845.198" gradientTransform="matrix(.8356 .7663 -.7663 .8356 -129.11 1311.304)"><stop offset="0" stop-color="#e6e630"/><stop offset="1" stop-color="#f5c415"/></linearGradient><path fill="url(#i)" d="M548.6 632.6c-.8.9-1.6 1.3-1.9 1-.3-.2.1-1.2.9-2.1.8-.9 1.6-1.3 1.9-1s-.1 1.2-.9 2.1z"/><linearGradient id="j" gradientUnits="userSpaceOnUse" x1="819.486" y1="690.187" x2="886.43" y2="690.187" gradientTransform="translate(-455.301 -195.72) scale(1.1336)"><stop offset="0" stop-color="#fff" stop-opacity="0"/><stop offset="1" stop-color="#f5ffff"/></linearGradient><path opacity=".1" fill="url(#j)" d="M549.5 630.7l-69.1-91-6.7 12 73 82c.3.2 1.2-.2 1.9-1 .8-1 1.2-1.8.9-2z"/><linearGradient id="k" gradientUnits="userSpaceOnUse" x1="817.2" y1="689.996" x2="884.062" y2="689.996" gradientTransform="translate(-455.301 -195.72) scale(1.1336)"><stop offset="0" stop-color="#fff" stop-opacity="0"/><stop offset="1" stop-color="#f5ffff"/></linearGradient><path opacity=".3" fill="url(#k)" d="M546.9 630.4l-69.1-91-6.7 12 73 82c.3.2 1.2-.2 1.9-1 .9-.9 1.2-1.7.9-2z"/><linearGradient id="l" gradientUnits="userSpaceOnUse" x1="815.01" y1="689.806" x2="881.888" y2="689.806" gradientTransform="translate(-455.301 -195.72) scale(1.1336)"><stop offset="0" stop-color="#fff" stop-opacity="0"/><stop offset="1" stop-color="#f5ffff"/></linearGradient><path opacity=".2" fill="url(#l)" d="M544.4 630.2l-69.1-91-6.7 12 73 82c.3.2 1.2-.2 1.9-1 .9-.9 1.2-1.8.9-2z"/><path d="M550 667.4l1.9-1.5 2 1.9v.2h1v-33h-5v33h.1v-.6zm0-.4v-2.7l1.7 1.4-1.7 1.3zm0-27.2l1.7 1.4-1.7 1.4v-2.8zm2.2 1.8l1.8 1.4-1.8 1.4-1.8-1.4 1.8-1.4zm-.5 3.1l-1.7 1.4v-2.7l1.7 1.3zm.5.3l1.8 1.4-1.8 1.4-1.8-1.4 1.8-1.4zm-.5 3.2l-1.7 1.4v-2.7l1.7 1.3zm.5.3l1.8 1.4-1.8 1.4-1.8-1.4 1.8-1.4zm-.5 3.2l-1.7 1.4v-2.7l1.7 1.3zm.5.3l1.8 1.4-1.8 1.4-1.8-1.4 1.8-1.4zm-.5 3.2l-1.7 1.4v-2.7l1.7 1.3zm.5.3l1.8 1.4-1.8 1.4-1.8-1.4 1.8-1.4zm-.5 3.2l-1.7 1.4v-2.7l1.7 1.3zm-1.7 2.2l1.7 1.4-1.7 1.4v-2.8zm.3-.4l1.8-1.4 1.8 1.4-1.8 1.4-1.8-1.4zm3.7.3v2.9l-1.8-1.4 1.8-1.5zm-1.8-2.1l1.8-1.4v2.9l-1.8-1.5zm0-3.5l1.8-1.4v2.9l-1.8-1.5zm0-3.5l1.8-1.4v2.9l-1.8-1.5zm0-3.5l1.8-1.4v2.9l-1.8-1.5zm0-3.5l1.8-1.4v2.9l-1.8-1.5zm0-3.5l1.8-1.4v2.9l-1.8-1.5zm0-.3l-1.8-1.4 1.8-1.4 1.8 1.4-1.8 1.4zm-2.2-1.8v-2.7l1.7 1.4-1.7 1.3zm2.2 23.4l1.8 1.4-1.8 1.4-1.8-1.4 1.8-1.4zm0-24.8l1.8-1.4v2.9l-1.8-1.5zm0-.5l-1.4-1.2h2.9l-1.5 1.2zm0 28.4l1.8-1.4v2.9l-1.8-1.5zM556 787v-32m0 0H266v-87h-10v87h-5v40h305v-40zm-299-78l3.2 2.6-3.2 2.6V677zm4 3.1l3.5 2.7-3.5 2.7-3.5-2.7 3.5-2.7zm-.8 5.9l-3.2 2.6v-5.1l3.2 2.5zm.8.6l3.5 2.7-3.5 2.7-3.5-2.7 3.5-2.7zm-.8 6l-3.2 2.6v-5.1l3.2 2.5zm.8.6l3.5 2.7-3.5 2.7-3.5-2.7 3.5-2.7zm-.8 6l-3.2 2.6v-5.1l3.2 2.5zm.8.6l3.5 2.7-3.5 2.7-3.5-2.7 3.5-2.7zm-.8 5.9l-3.2 2.6v-5.1l3.2 2.5zm.8.6l3.5 2.7-3.5 2.7-3.5-2.7 3.5-2.7zm-.8 6l-3.2 2.6v-5.1l3.2 2.5zm.8.5l3.5 2.7-3.5 2.7-3.5-2.7 3.5-2.7zm-.8 6.1l-3.2 2.6v-5.1l3.2 2.5zm.8.5l3.5 2.7-3.5 2.7-3.5-2.7 3.5-2.7zm-.8 6L257 728v-5l3.2 2.4zm.8.5l3.5 2.7-3.5 2.7-3.5-2.7 3.5-2.7zm-.8 6l-3.2 2.6v-5.1l3.2 2.5zm.8.6l3.5 2.7-3.5 2.7-3.5-2.7 3.5-2.7zm-.8 6l-3.2 2.6V736l3.2 2.5zm.8.5l3.5 2.7-3.5 2.7-3.5-2.7 3.5-2.7zm-.8 6l-3.2 2.6v-5.1l3.2 2.5zm.8.6l3.5 2.7-3.5 2.7-3.5-2.7 3.5-2.7zm-.8 6l-3.2 2.6v-5.1l3.2 2.5zm3.9 3.4h-5.9l2.9-2.4 3 2.4zm-2.4-3.4l3.3-2.7v5.4l-3.3-2.7zm0-6.6l3.3-2.7v5.4l-3.3-2.7zm0-6.5l3.3-2.7v5.4l-3.3-2.7zm0-6.6l3.3-2.7v5.4l-3.3-2.7zm0-6.5l3.3-2.7v5.4l-3.3-2.7zm0-6.5l3.3-2.7v5.4l-3.3-2.7zm0-6.6l3.3-2.7v5.4l-3.3-2.7zm0-6.6l3.3-2.7v5.4l-3.3-2.7zm0-6.5l3.3-2.7v5.4l-3.3-2.7zm0-6.6l3.3-2.7v5.4l-3.3-2.7zm0-6.6l3.3-2.7v5.4l-3.3-2.7zm0-6.5l3.3-2.7v5.4l-3.3-2.7zm-.7-.5l-3.5-2.7 3.5-2.7 3.5 2.7-3.5 2.7zm-4-3.4v-5.1l3.2 2.6-3.2 2.5zm4.7-2.6l3.3-2.7v5.4l-3.3-2.7zm-.7.2l-2.7-2.2h5.4l-2.7 2.2z" fill="#091F38"/><path fill="#091F38" d="M515.4 752h4.6v4h1v-4h11v4h3v-4h3v-40h-2.4c-2.2-3-5.2-6-8.6-6-3.5 0-6.6 3-8.6 6H515v13.8l.4 25.9v.3zm-34.7 1h2.3v3h1v-3h7v2.4-2.4h3v-21h-2.3c-1.2-2-2.8-3.3-4.7-3.3-1.9 0-3.6 1.3-4.7 3.3H480v7.1l.7 13.7v.2zm-15.6 0h2.9v2.8-2.8h7v3h1v-3h2v-21h-1.9c-1.2-2-2.8-3.3-4.7-3.3-1.8 0-3.6 1.3-4.7 3.3H465v20.8l.1.2zm-15.7 0h2.6v3h2v-3h5v3h1v-3h2v-21h-1.6c-1.2-2-2.8-3.3-4.7-3.3-1.9 0-3.6 1.3-4.7 3.3h-1v7.1l-.8 13.7.2.2zm-15.8 0h1.4v3h2v-3h6v3h1v-3h2v-21h-1.3c-1.2-2-2.8-3.3-4.7-3.3-1.9 0-3.6 1.3-4.7 3.3H433v7.1l.5 13.7.1.2z"/><circle fill="#0E2943" cx="312.5" cy="654.8" r="1.5"/><circle fill="#0E2943" cx="312.5" cy="654.8" r="1.1"/><circle fill="#0E2943" cx="316" cy="654.8" r="1.5"/><circle fill="#0E2943" cx="316" cy="654.8" r="1.1"/><circle fill="#0E2943" cx="319.4" cy="654.8" r="1.5"/><circle fill="#0E2943" cx="319.4" cy="654.8" r="1.1"/><g fill="#0E2943"><circle cx="338.1" cy="589.5" r="1.5"/><path d="M337 589.5c0-.5.4-1.1 1.1-1.1.5 0 1.1.4 1.1 1.1 0 .6-.4 1.1-1.1 1.1-.6 0-1.1-.4-1.1-1.1z"/><circle cx="350.5" cy="589.5" r="1.5"/><path d="M349.4 589.5c0-.5.4-1.1 1.1-1.1.5 0 1.1.4 1.1 1.1 0 .6-.4 1.1-1.1 1.1-.5 0-1.1-.4-1.1-1.1z"/></g><g fill="#0E2943"><circle cx="384.4" cy="613.7" r="1.5"/><circle cx="384.4" cy="613.7" r="1.1"/></g><path d="M334 602h9v9h-9zm11 0h10v9h-10zm117.7 177.9l-.9-.9H363v-53h-10v53h-2.8l-.2.2V726h22c.5 0 2.1 2.7 3.8 2.7 1.7 0 3.2-2.7 3.8-2.7h2.7c.4 0 1.4 1.3 2.5 1.3 1.6 0 2.9-1.5 2.9-3.1 0-1.7-1.3-2.8-2.9-2.8-1.4 0-2.5.6-2.8 2.6h-2.4c-.4-2-1.9-2.9-3.9-2.9-1.8 0-3.5.9-3.9 2.9H350v-55h2v53h2v-.8l3.9-2.6 4.1 2.7v.7h1v-87h21v-9h-21v-10h-11v-.4V626h-2v-13h11v-2h-33v2h12v7h-2v-4h-11v-.3 4.3h-2v1.6c-3 .4-4.9 2.7-4.9 5.6s1.9 5.2 4.9 5.6v2.2h2v33h-21v-3h-10v-.1V759h-4v-3h1v-18h-.7c-1-1-2.5-2.8-4-2.8-1.6 0-3 1.8-4 2.8H283v18h2v3h-21v2h-2v20h-11v13h212v-9.6l-.3-4.5zM291 759h-6v-3h6v3zm71-132.4l-3.4-2.1 4.4-2.3v3.8h-1v.6zm1 7.4v3.8l-4.2-2.4 2.2-1.4h2zm-5.1-9.8l-4.1-2.3 4.1-2.3 4.1 2.3-4.1 2.3zm2.8 1.8h-5.6l2.8-1.5 2.8 1.5zm-1.4 8l-1.4.8-1.4-.8h2.8zm2.8 4.4l-4.1 2.3-4.1-2.3 4.1-2.3 4.1 2.3zm.9.5v4.5l-4.1-2.3 4.1-2.2zm-.9 4.9l-4.1 2.3-4.1-2.3 4.1-2.3 4.1 2.3zm.9.6v4.5l-4.1-2.3 4.1-2.2zm-.9 4.9l-4.1 2.3-4.1-2.3 4.1-2.3 4.1 2.3zm.9.6v4.5l-4.1-2.3 4.1-2.2zm-.9 4.9l-4.1 2.3-4.1-2.3 4.1-2.3 4.1 2.3zm.9.6v4.5l-4.1-2.3 4.1-2.2zm-.9 4.9l-4.1 2.3-4.1-2.3 4.1-2.3 4.1 2.3zm.9.6v4.5l-4.1-2.3 4.1-2.2zm-.9 5.3l-2.5 1.8h-3.3l-2.5-1.8 4.1-2.3 4.2 2.3zm-8.3 43.7l4.1-2.3 4.1 2.3-4.1 2.3-4.1-2.3zm4.1 2.7l-3.9 2.2v-4.3l3.9 2.1zm-3.9-3.3V705l3.9 2.2-3.9 2.1zm-.2-4.9l4.1-2.3 4.1 2.3-4.1 2.3-4.1-2.3zm.2-.7v-4.3l3.9 2.2-3.9 2.1zm-.2-4.8l4.1-2.3 4.1 2.3-4.1 2.3-4.1-2.3zm.2-.7v-4.3l3.9 2.2-3.9 2.1zm-.2-4.8l4.1-2.3 4.1 2.3-4.1 2.3-4.1-2.3zm.2-.7v-4.3l3.9 2.2-3.9 2.1zm-.2-4.8l4.1-2.3 4.1 2.3-4.1 2.3-4.1-2.3zm.2-.6V683l3.9 2.2-3.9 2.1zm-.2-4.9l4.1-2.3 4.1 2.3-4.1 2.3-4.1-2.3zm.2-.6v-4.3l3.9 2.2-3.9 2.1zm-.2-4.9l4.1-2.3 4.1 2.3-4.1 2.3-4.1-2.3zm.2-.6V672l3.9 2.2-3.9 2.1zm-.2-5.1l3.8-2.2h.6l3.8 2.2-4.1 2.3-4.1-2.3zm.2-.5v-1.6h1.9l-1.9 1.6zm0 49.6V716l3.9 2.2-3.9 2.1zm-.2-4.9l4.1-2.3 4.1 2.3-4.1 2.3-4.1-2.3zm9.2 5l-4.1-2.3 4.1-2.3v4.6zm0-5.5l-4.1-2.3 4.1-2.3v4.6zm0-5.5l-4.1-2.3 4.1-2.3v4.6zm0-5.5l-4.1-2.3 4.1-2.3v4.6zm0-5.6l-4.1-2.3 4.1-2.3v4.6zm0-5.5l-4.1-2.3 4.1-2.3v4.6zm0-5.5l-4.1-2.3 4.1-2.3v4.6zm0-5.5l-4.1-2.3 4.1-2.3v4.6zm0-5.4l-4.1-2.3 4.1-2.3v4.6zm0-5.5l-3.1-1.9h3.1v1.9zm-1.8-3.3l1.7-1.2v1.2h-1.7zm1.8-46.2l-4.1-2.3 4.1-2.3v4.6zm-1.8-4.4l-3.2 1.8-3.2-1.8h6.4zm-7.2 0l3.9 2.2-3.9 2.2V617zm0 5.5l3.5 1.8-4.1 1.7h.6v-3.5zm0 11.5h.8l2.7 1.4-3.5 2.3V634zm0 5l3.9 2.2-3.9 2.2V639zm0 5.5l3.9 2.2-3.9 2.2v-4.4zm0 5.5l3.9 2.2-3.9 2.2V650zm0 5.5l3.9 2.2-3.9 2.2v-4.4zm0 5.5l3.9 2.2-3.9 2.2V661zm.6 6.3h-1.2v-.8l1.2.8zM352 634v34h-2v-34h2zm-11 0v34h-2v-34h2zm-6.9 0l-1.4.8-1.4-.8h2.8zm-1.8-14.2l.3-.2.3.2h-.6zm3.4 14.2h1.3v3.8l-3.8-2.4 2.5-1.4zm1.1 4.4l-4.1 2.3-4.1-2.3 4.1-2.3 4.1 2.3zm.2.5v4.5l-4.1-2.3 4.1-2.2zm-.2 4.9l-4.1 2.3-4.1-2.3 4.1-2.3 4.1 2.3zm.2.6v4.5l-4.1-2.3 4.1-2.2zm-.2 4.9l-4.1 2.3-4.1-2.3 4.1-2.3 4.1 2.3zm.2.6v4.5l-4.1-2.3 4.1-2.2zm-.2 4.9l-4.1 2.3-4.1-2.3 4.1-2.3 4.1 2.3zm.2.6v4.5l-4.1-2.3 4.1-2.2zm-.2 4.9l-4.1 2.3-4.1-2.3 4.1-2.3 4.1 2.3zm.2.6v4.5l-4.1-2.3 4.1-2.2zm-.2 5.3l-2.5 1.8H331l-2.5-1.8 4.1-2.3 4.2 2.3zm-8.3 43.7l4.1-2.3 4.1 2.3-4.1 2.3-4.1-2.3zm3.4 2.7l-3.9 2.2v-4.3l3.9 2.1zm-3.9-3.3V705l3.9 2.2-3.9 2.1zm.5-4.9l4.1-2.3 4.1 2.3-4.1 2.3-4.1-2.3zm-.5-.7v-4.3l3.9 2.2-3.9 2.1zm.5-4.8l4.1-2.3 4.1 2.3-4.1 2.3-4.1-2.3zm-.5-.7v-4.3l3.9 2.2-3.9 2.1zm.5-4.8l4.1-2.3 4.1 2.3-4.1 2.3-4.1-2.3zm-.5-.7v-4.3l3.9 2.2-3.9 2.1zm.5-4.8l4.1-2.3 4.1 2.3-4.1 2.3-4.1-2.3zm-.5-.6V683l3.9 2.2-3.9 2.1zm.5-4.9l4.1-2.3 4.1 2.3-4.1 2.3-4.1-2.3zm-.5-.6v-4.3l3.9 2.2-3.9 2.1zm.5-4.9l4.1-2.3 4.1 2.3-4.1 2.3-4.1-2.3zm-.5-.6V672l3.9 2.2-3.9 2.1zm.5-5.1l3.8-2.2h.6l3.8 2.2-4.1 2.3-4.1-2.3zm-.5-.5V669h2.7l-2.7 1.7zm0 45.2l3.9 2.2-3.9 2.2v-4.4zm.5-.5l4.1-2.3 4.1 2.3-4.1 2.3-4.1-2.3zm8.5.5v4.5l-4.1-2.3 4.1-2.2zm-4.1-3.3l4.1-2.3v4.5l-4.1-2.2zm0-5.5l4.1-2.3v4.5l-4.1-2.2zm0-5.5l4.1-2.3v4.5l-4.1-2.2zm0-5.4l4.1-2.3v4.5l-4.1-2.2zm0-5.5l4.1-2.3v4.5l-4.1-2.2zm0-5.5l4.1-2.3v4.5l-4.1-2.2zm0-5.6l4.1-2.3v4.5l-4.1-2.2zm0-5.5l4.1-2.3v4.5l-4.1-2.2zm1.8-5.1h2.3v1.9l-2.3-1.9zm1.3-1.7l1.4-1v1H336zm1.6-47.3h-2.9l-1.5-.8 3.8-2.4v2.9l.6.3zm-1.6-3l-3.2 1.8-3.2-1.8h6.4zm-8 0l3.9 2.3-1.2.8H328V617zm0 17h1.6l2.3 1.4-3.9 2.3V634zm0 5l3.9 2.2-3.9 2.2V639zm0 5.5l3.9 2.2-3.9 2.2v-4.4zm0 5.5l3.9 2.2-3.9 2.2V650zm0 5.5l3.9 2.2-3.9 2.2v-4.4zm0 5.5l3.9 2.2-3.9 2.2V661zm-.1 5.5l1.4 1.1h-1.4v-1.1zM305 668h-2.6l2.6-2.1v2.1zm-8 85l3.7-2.1 3.7 2.1-3.7 2.1-3.7-2.1zm3.5 2.3l-3.5 1.9v-3.8l3.5 1.9zm-3.5-2.9v-3.8l3.5 1.8-3.5 2zm0-4.3l3.7-2.1 3.7 2.1-3.7 2.1-3.7-2.1zm0-.5v-3.8l3.5 1.9-3.5 1.9zm0-4.5l3.7-2.1 3.7 2.1-3.7 2.1-3.7-2.1zm0-.4v-3.8l3.5 1.8-3.5 2zm0-4.3l3.7-2.1 3.7 2.1-3.7 2.1-3.7-2.1zm0-.5v-3.8l3.5 1.8-3.5 2zm0-4.5l3.7-2.1 3.7 2.1-3.7 2.1-3.7-2.1zm0-.4v-3.8l3.5 1.8-3.5 2zm0-4.3l3.7-2.1 3.7 2.1-3.7 2.1-3.7-2.1zm0-.7v-2h2l1.2.4-3.2 1.6zm3.7-2.2l-.2-.1h.4l-.2.1zm-3.2-1.8l3.1-1.7 3.1 1.7h-6.2zm-.5-.8v-3.8l3.5 1.8-3.5 2zm0-4.3l3.7-2.1 3.7 2.1-3.7 2.1-3.7-2.1zm0-.6v-3.8l3.5 1.8-3.5 2zm0-4.3l3.7-2.1 3.7 2.1-3.7 2.1-3.7-2.1zm0-.5v-3.8l3.5 1.8-3.5 2zm0-4.4l3.7-2.1 3.7 2.1-3.7 2.1-3.7-2.1zm0-.5v-3.8l3.5 1.9-3.5 1.9zm0-4.3l3.7-2.1 3.7 2.1-3.7 2.1-3.7-2.1zm0-.6V700l3.5 1.8-3.5 1.9zm0-4.3l3.7-2.1 3.7 2.1-3.7 2.1-3.7-2.1zm0-.5v-3.8l3.5 1.8-3.5 2zm0-4.3l3.7-2.1 3.7 2.1-3.7 2.1-3.7-2.1zm0-.6v-3.8l3.5 1.8-3.5 2zm0-4.3l3.7-2.1 3.7 2.1-3.7 2.1-3.7-2.1zm0-.5v-3.8l3.5 1.9-3.5 1.9zm0-4.3l3.7-2.1 3.7 2.1-3.7 2.1-3.7-2.1zm0-.6v-3.8l3.5 1.8-3.5 2zm0-4.3l3.7-2.1 3.7 2.1-3.7 2.1-3.7-2.1zm0-.5v-3.8l3.5 1.9-3.5 1.9zm0-4.4l3.7-2.1 3.7 2.1-3.7 2.1-3.7-2.1zm0-.5v-3.8l3.5 1.8-3.5 2zm0-4.5l1.7-1.1h3.9l1.7 1.1-3.7 2.1-3.6-2.1zm6.6-4.1l-2.6 2h-.5l-2.6-2h5.7zm-6.6 0l2 2h-2v-2zm.3 3.3l-.8.4v-.4h.8zM305 759h-8v-1l4-2.3 4.2 2.5-.2.8zm0-1.6l-3.6-2.1 3.6-2.1v4.2zm0-4.9l-3.6-2.1 3.6-2.1v4.2zm0-4.8l-3.6-2.1 3.6-2.1v4.2zm0-5l-3.6-1.9 3.6-2.1v4zm0-4.7l-3.6-2.1 3.6-2.1v4.2zm0-5l-3.6-1.9 3.6-2.1v4zm0-4.7l-3.6-1.9 1-.4h2.6v2.3zm0-5l-3.6-1.9 3.6-2.1v4zm0-4.9l-3.6-2.1 3.6-2.1v4.2zm0-4.8l-3.6-1.9 3.6-2.1v4zm0-4.9l-3.6-2.1 3.6-2.1v4.2zm0-4.8l-3.6-2.1 3.6-2.1v4.2zm0-4.9l-3.6-2.1 3.6-2.1v4.2zm0-4.9l-3.6-2.1 3.6-2.1v4.2zm0-4.8l-3.6-2.1 3.6-2.1v4.2zm0-5l-3.6-2.1 3.6-2.1v4.2zm0-4.7l-3.6-2.1 3.6-2.1v4.2zm0-5l-3.6-2.1 3.6-2.1v4.2zm-.9-5.3h1v.6l-1-.6zm24.3 89.2v-.5l1.5.5h-1.5zm.6-10.8l3.7-2.1 3.7 2.1-3.7 2.1-3.7-2.1zm7.4 4.8l-3.7 2.1-3.7-2.1 3.7-2.1 3.7 2.1zm-7.4-9.7l3.7-2.1 3.7 2.1-3.7 2.1-3.7-2.1zm0-4.8l3.7-2.1 3.7 2.1-3.7 2.1-3.7-2.1zm0-4.9l3.7-2.1 3.7 2.1-3.7 2.1-3.7-2.1zm.8-5.1h5.7l-2.9 1.6-2.8-1.6zm1.7 2.6l-3.5 1.8v-3.8l3.5 2zm0 4.9l-3.5 1.8v-3.8l3.5 2zm0 4.9l-3.5 1.8v-3.8l3.5 2zm0 4.8L328 747v-3.8l3.5 2zm0 5l-3.5 1.9v-3.8l3.5 1.9zm0 4.8l-3.5 1.8V753l3.5 2zm-.2 4l-2.3-1.4 3.7-2.1 3.7 2.2-2.3 1.4h-2.8zm6-.5h-1.8l1.8-.7v.7zm-.3-1.5l-3.6-2.1 3.6-2.1v4.2zm0-4.9l-3.6-2.1 3.6-2.1v4.2zm0-4.8l-3.6-2.1 3.6-2.1v4.2zm0-4.9l-3.6-2.1 3.6-2.1v4.2zm0-4.9l-3.6-2.1 3.6-2.1v4.2zm0-4.8l-3.6-2.1 3.6-2.1v4.2zm3.7 26.3H338v-33h-10v33h-22v-33h34v33h.7zM306 723.4V669h21v53h1v-.9l4.4-2.6 4.6 2.7v.8h1v-53h2v55h-34.3l.3-.6zm43.4 57.2v-.9.9zm11.2-52.6l-2.9 1.6-2.9-1.6h5.8zm-6.6 39.1l3.7-2.1 3.7 2.1-3.7 2.1-3.7-2.1zm7.3 5l-3.7 2.1-3.7-2.1 3.7-2.1 3.7 2.1zm-7.3-9.8l3.7-2.1 3.7 2.1-3.7 2.1-3.7-2.1zm0-4.9l3.7-2.1 3.7 2.1-3.7 2.1-3.7-2.1zm0-4.9l3.7-2.1 3.7 2.1-3.7 2.1-3.7-2.1zm0-4.8l3.7-2.1 3.7 2.1-3.7 2.1-3.7-2.1zm0-4.9l3.7-2.1 3.7 2.1-3.7 2.1-3.7-2.1zm0-4.8l3.7-2.1 3.7 2.1-3.7 2.1-3.7-2.1zm0-4.9l3.7-2.1 3.7 2.1-3.7 2.1-3.7-2.1zm0-4.3l3.5 1.8-3.5 1.8v-3.6zm0 4.8l3.5 1.9-3.5 1.8v-3.7zm0 4.9l3.5 1.9-3.5 1.8v-3.7zm0 4.9l3.5 1.8-3.5 1.8v-3.6zm0 4.8l3.5 1.8-3.5 2v-3.8zm0 4.9l3.5 1.9-3.5 1.8v-3.7zm0 4.8l3.5 1.9-3.5 1.8v-3.7zm0 4.9l3.5 1.8-3.5 1.8v-3.6zm0 4.9l3.5 1.8-3.5 1.9v-3.7zm0 4.8l3.5 1.9-3.5 1.8v-3.7zm-.4 5.6v-.6l1.3.6h-1.3zm.4-1.3l3.7-2.1 3.7 2.1-3.7 2.1-3.7-2.1zm4.4 2.5zm3.3-.9h-1.3l1.3-1v1zm-.7-2l-3.6-2.1 3.6-2.1v4.2zm0-4.9l-3.6-2.1 3.6-2.1v4.2zm0-4.8l-3.6-2.1 3.6-2.1v4.2zm0-4.9l-3.6-2.1 3.6-2.1v4.2zm0-4.8l-3.6-2.1 3.6-2.1v4.2zm0-4.9l-3.6-2.1 3.6-2.1v4.2zm0-4.8l-3.6-2.1 3.6-2.1v4.2zm0-4.9l-3.6-2.1 3.6-2.1v4.2zm0-4.9l-3.6-2.1 3.6-2.1v4.2zm0-4.8l-3.6-2.1 3.6-2.1v4.2z" fill="#011128"/><ellipse transform="rotate(-42.495 344.793 661.534)" cx="344.8" cy="661.5" rx=".6" ry="1.8"/><ellipse transform="rotate(-42.524 338.526 667.27)" cx="338.5" cy="667.3" rx=".6" ry="1.8"/><path d="M345.991 662.83l-6.266 5.744-2.433-2.654 6.267-5.744z"/><linearGradient id="m" gradientUnits="userSpaceOnUse" x1="-3664.465" y1="2582.473" x2="-3663.544" y2="2582.473" gradientTransform="matrix(-.8356 .7663 .7663 .8356 -4695.987 1311.304)"><stop offset="0" stop-color="#e6e630"/><stop offset="1" stop-color="#f5c415"/></linearGradient><path fill="url(#m)" d="M344.3 662c.5.5 1.2.9 1.4.6.2-.2 0-.9-.5-1.4s-1.2-.9-1.4-.6c-.3.1-.1.8.5 1.4z"/><ellipse transform="rotate(-42.495 343.11 661.688)" cx="343.1" cy="661.7" rx=".6" ry="1.8"/><ellipse transform="rotate(-42.495 336.714 667.451)" cx="336.7" cy="667.4" rx=".6" ry="1.8"/><path d="M344.108 663.062l-6.265 5.744-2.433-2.653 6.266-5.745z"/><linearGradient id="n" gradientUnits="userSpaceOnUse" x1="-3663.202" y1="2581.515" x2="-3662.281" y2="2581.515" gradientTransform="matrix(-.8356 .7663 .7663 .8356 -4695.987 1311.304)"><stop offset="0" stop-color="#e6e630"/><stop offset="1" stop-color="#f5c415"/></linearGradient><path fill="url(#n)" d="M342.5 662.1c.5.5 1.2.9 1.4.6.2-.2 0-.9-.5-1.4-.5-.5-1.2-.9-1.4-.6-.2.2 0 .8.5 1.4z"/><ellipse transform="rotate(-42.507 341.238 661.78)" cx="341.2" cy="661.8" rx=".6" ry="1.8"/><ellipse transform="rotate(-42.507 334.915 667.445)" cx="334.9" cy="667.5" rx=".6" ry="1.8"/><path d="M342.402 663.072l-6.265 5.744-2.433-2.654 6.266-5.743z"/><linearGradient id="o" gradientUnits="userSpaceOnUse" x1="-3661.974" y1="2580.459" x2="-3661.054" y2="2580.459" gradientTransform="matrix(-.8356 .7663 .7663 .8356 -4695.987 1311.304)"><stop offset="0" stop-color="#e6e630"/><stop offset="1" stop-color="#f5c415"/></linearGradient><path fill="url(#o)" d="M340.7 662.2c.5.5 1.2.9 1.4.6.2-.2 0-.9-.6-1.4-.5-.5-1.2-.9-1.4-.6-.3.2.1.8.6 1.4z"/><linearGradient id="p" gradientUnits="userSpaceOnUse" x1="-4202.026" y1="727.949" x2="-4154.448" y2="727.949" gradientTransform="matrix(-1.1336 0 0 1.1336 -4369.797 -195.72)"><stop offset="0" stop-color="#f5ffff" stop-opacity="0"/><stop offset="1" stop-color="#fff"/></linearGradient><path opacity=".1" fill="url(#p)" d="M340.1 660.8l49.1-64.8 4.7 8.5-51.9 58.4c-.2.2-.9-.1-1.4-.6-.4-.7-.8-1.3-.5-1.5z"/><linearGradient id="q" gradientUnits="userSpaceOnUse" x1="-4203.642" y1="727.853" x2="-4156.064" y2="727.853" gradientTransform="matrix(-1.1336 0 0 1.1336 -4369.797 -195.72)"><stop offset="0" stop-color="#f5ffff" stop-opacity="0"/><stop offset="1" stop-color="#fff"/></linearGradient><path opacity=".3" fill="url(#q)" d="M341.9 660.7l49.1-64.8 4.7 8.5-51.9 58.4c-.2.2-.9-.1-1.4-.6-.4-.7-.7-1.3-.5-1.5z"/><linearGradient id="r" gradientUnits="userSpaceOnUse" x1="-4204.191" y1="727.949" x2="-4156.613" y2="727.949" gradientTransform="matrix(-1.1336 0 0 1.1336 -4369.797 -195.72)"><stop offset="0" stop-color="#f5ffff" stop-opacity="0"/><stop offset="1" stop-color="#fff"/></linearGradient><path opacity=".2" fill="url(#r)" d="M342.5 660.8l49.1-64.8 4.7 8.5-51.9 58.4c-.2.2-.9-.1-1.4-.6-.4-.7-.7-1.3-.5-1.5z"/><path d="M505.4 764.5l.1.6 4.6-3.7-.1-.4z"/><path d="M510.1 764.5l-.1.6-4.6-3.7.1-.4z"/><path d="M505.4 768l.1.5 4.6-3.5-.1-.6z"/><path d="M510.1 768l-.1.5-4.6-3.5.1-.6z"/><path d="M505.4 771.5l.1.6 4.6-3.7-.1-.5z"/><path d="M510.1 771.5l-.1.6-4.6-3.7.1-.5z"/><path d="M505.4 775l.1.5 4.6-3.6-.1-.5z"/><path d="M510.1 775l-.1.5-4.6-3.6.1-.5z"/><path d="M505.4 778.4l.1.6 4.6-3.6-.1-.5z"/><path d="M510.1 778.4l-.1.6-4.6-3.6.1-.5z"/><path d="M505.4 782l.1.6 4.6-3.7-.1-.5z"/><path d="M510.1 782l-.1.6-4.6-3.7.1-.5z"/><path d="M505.4 785.5l.1.5 4.6-3.6-.1-.5z"/><path d="M510.1 785.5l-.1.5-4.6-3.6.1-.5z"/><path d="M505.4 789l.1.6 4.6-3.7-.1-.5z"/><path d="M510.1 789l-.1.6-4.6-3.7.1-.5z"/><path d="M505.4 792.5l.1.5 4.6-3.6-.1-.5z"/><path d="M510.1 792.5l-.1.5-4.6-3.6.1-.5z"/><ellipse transform="rotate(-137.497 498.427 756.796)" cx="498.4" cy="756.8" rx=".9" ry="2.5"/><ellipse transform="rotate(-137.493 507.279 764.804)" cx="507.3" cy="764.8" rx=".9" ry="2.5"/><path d="M500.046 754.934l8.918 8.176-3.378 3.685-8.919-8.176z"/><linearGradient id="s" gradientUnits="userSpaceOnUse" x1="76.99" y1="-734.61" x2="78.284" y2="-734.61" gradientTransform="matrix(.8356 .7663 -.7663 .8356 -129.11 1311.304)"><stop offset="0" stop-color="#e6e630"/><stop offset="1" stop-color="#f5c415"/></linearGradient><path fill="url(#s)" d="M499.2 757.4c-.8.9-1.6 1.3-1.9 1-.3-.3.1-1.2.9-2.1s1.6-1.3 1.9-1c.2.4-.2 1.3-.9 2.1z"/><ellipse transform="rotate(-137.497 500.882 757.037)" cx="500.9" cy="757" rx=".9" ry="2.5"/><ellipse transform="rotate(-137.493 509.734 765.027)" cx="509.7" cy="765" rx=".9" ry="2.5"/><path d="M502.582 755.198l8.92 8.178-3.38 3.685-8.919-8.177z"/><linearGradient id="t" gradientUnits="userSpaceOnUse" x1="78.766" y1="-735.878" x2="80.06" y2="-735.878" gradientTransform="matrix(.8356 .7663 -.7663 .8356 -129.11 1311.304)"><stop offset="0" stop-color="#e6e630"/><stop offset="1" stop-color="#f5c415"/></linearGradient><path fill="url(#t)" d="M501.7 757.7c-.8.9-1.6 1.3-1.9 1-.3-.2.1-1.2.9-2.1.8-.9 1.6-1.3 1.9-1 .1.4-.2 1.3-.9 2.1z"/><ellipse transform="rotate(-137.493 503.436 757.19)" cx="503.4" cy="757.2" rx=".9" ry="2.5"/><ellipse transform="rotate(-137.497 512.297 765.175)" cx="512.3" cy="765.1" rx=".9" ry="2.5"/><path d="M504.985 755.26l8.919 8.178-3.38 3.685-8.918-8.177z"/><linearGradient id="u" gradientUnits="userSpaceOnUse" x1="80.492" y1="-737.289" x2="81.785" y2="-737.289" gradientTransform="matrix(.8356 .7663 -.7663 .8356 -129.11 1311.304)"><stop offset="0" stop-color="#e6e630"/><stop offset="1" stop-color="#f5c415"/></linearGradient><path fill="url(#u)" d="M504.1 757.8c-.8.9-1.6 1.3-1.9 1-.3-.3.1-1.2.9-2.1.8-.9 1.6-1.3 1.9-1 .3.4-.1 1.3-.9 2.1z"/><linearGradient id="v" gradientUnits="userSpaceOnUse" x1="780.253" y1="800.648" x2="847.197" y2="800.648" gradientTransform="translate(-455.301 -195.72) scale(1.1336)"><stop offset="0" stop-color="#fff" stop-opacity="0"/><stop offset="1" stop-color="#f5ffff"/></linearGradient><path opacity=".1" fill="url(#v)" d="M505 755.9l-69.1-91-6.7 12 73 82c.3.2 1.2-.2 1.9-1 .8-.9 1.2-1.8.9-2z"/><linearGradient id="w" gradientUnits="userSpaceOnUse" x1="777.967" y1="800.457" x2="844.851" y2="800.457" gradientTransform="translate(-455.301 -195.72) scale(1.1336)"><stop offset="0" stop-color="#fff" stop-opacity="0"/><stop offset="1" stop-color="#f5ffff"/></linearGradient><path opacity=".3" fill="url(#w)" d="M502.4 755.7l-69.1-91-6.7 12 73 82c.3.2 1.2-.2 1.9-1 .9-.8 1.2-1.8.9-2z"/><linearGradient id="x" gradientUnits="userSpaceOnUse" x1="775.872" y1="800.172" x2="842.736" y2="800.172" gradientTransform="translate(-455.301 -195.72) scale(1.1336)"><stop offset="0" stop-color="#fff" stop-opacity="0"/><stop offset="1" stop-color="#f5ffff"/></linearGradient><path opacity=".2" fill="url(#x)" d="M499.9 755.5l-69-91.1-6.7 12 73 82c.3.2 1.2-.2 1.9-1 .8-.8 1.2-1.7.8-1.9z"/><ellipse transform="rotate(-42.507 369.894 661.406)" cx="369.9" cy="661.4" rx=".6" ry="1.8"/><ellipse transform="rotate(-42.524 363.67 667.288)" cx="363.7" cy="667.3" rx=".6" ry="1.8"/><path d="M371.004 662.818l-6.266 5.744-2.433-2.654 6.266-5.744z"/><linearGradient id="y" gradientUnits="userSpaceOnUse" x1="-3680.799" y1="2597.435" x2="-3679.878" y2="2597.435" gradientTransform="matrix(-.8356 .7663 .7663 .8356 -4695.987 1311.304)"><stop offset="0" stop-color="#e6e630"/><stop offset="1" stop-color="#f5c415"/></linearGradient><path fill="url(#y)" d="M369.4 662c.5.5 1.2.9 1.4.6.2-.2 0-.9-.6-1.4-.5-.5-1.2-.9-1.4-.6-.2.1.1.8.6 1.4z"/><ellipse transform="rotate(-42.495 368.186 661.637)" cx="368.2" cy="661.6" rx=".6" ry="1.8"/><ellipse transform="rotate(-42.483 361.854 667.415)" cx="361.9" cy="667.4" rx=".6" ry="1.8"/><path d="M369.344 663.074l-6.265 5.744-2.433-2.654 6.265-5.744z"/><linearGradient id="z" gradientUnits="userSpaceOnUse" x1="-3679.536" y1="2596.445" x2="-3678.615" y2="2596.445" gradientTransform="matrix(-.8356 .7663 .7663 .8356 -4695.987 1311.304)"><stop offset="0" stop-color="#e6e630"/><stop offset="1" stop-color="#f5c415"/></linearGradient><path fill="url(#z)" d="M367.6 662.1c.5.5 1.2.9 1.4.6.2-.2 0-.9-.5-1.4-.5-.5-1.2-.9-1.4-.6-.3.2.1.8.5 1.4z"/><ellipse transform="rotate(-42.507 366.309 661.72)" cx="366.3" cy="661.7" rx=".6" ry="1.8"/><ellipse transform="rotate(-42.491 360.026 667.477)" cx="360" cy="667.5" rx=".6" ry="1.8"/><path d="M367.416 663.03l-6.266 5.744-2.433-2.654 6.266-5.744z"/><linearGradient id="A" gradientUnits="userSpaceOnUse" x1="-3678.308" y1="2595.453" x2="-3677.389" y2="2595.453" gradientTransform="matrix(-.8356 .7663 .7663 .8356 -4695.987 1311.304)"><stop offset="0" stop-color="#e6e630"/><stop offset="1" stop-color="#f5c415"/></linearGradient><path fill="url(#A)" d="M365.9 662.2c.5.5 1.2.9 1.4.6.2-.2 0-.9-.6-1.4-.5-.5-1.2-.9-1.4-.6-.3.2 0 .8.6 1.4z"/><linearGradient id="B" gradientUnits="userSpaceOnUse" x1="-4224.185" y1="727.949" x2="-4176.607" y2="727.949" gradientTransform="matrix(-1.1336 0 0 1.1336 -4369.797 -195.72)"><stop offset="0" stop-color="#f5ffff" stop-opacity="0"/><stop offset="1" stop-color="#fff"/></linearGradient><path opacity=".1" fill="url(#B)" d="M365.2 660.8l49.1-64.8 4.7 8.5-51.9 58.4c-.2.2-.9-.1-1.4-.6-.4-.7-.7-1.3-.5-1.5z"/><linearGradient id="C" gradientUnits="userSpaceOnUse" x1="-4225.763" y1="727.853" x2="-4178.185" y2="727.853" gradientTransform="matrix(-1.1336 0 0 1.1336 -4369.797 -195.72)"><stop offset="0" stop-color="#f5ffff" stop-opacity="0"/><stop offset="1" stop-color="#fff"/></linearGradient><path opacity=".3" fill="url(#C)" d="M367 660.7l49.1-64.8 4.7 8.5-51.8 58.4c-.2.2-.9-.1-1.4-.6-.4-.7-.8-1.3-.6-1.5z"/><linearGradient id="D" gradientUnits="userSpaceOnUse" x1="-4227.34" y1="727.758" x2="-4179.762" y2="727.758" gradientTransform="matrix(-1.1336 0 0 1.1336 -4369.797 -195.72)"><stop offset="0" stop-color="#f5ffff" stop-opacity="0"/><stop offset="1" stop-color="#fff"/></linearGradient><path opacity=".2" fill="url(#D)" d="M368.8 660.6l49.1-64.8 4.7 8.5-51.9 58.4c-.2.2-.9-.1-1.4-.6-.4-.7-.7-1.4-.5-1.5z"/><ellipse transform="rotate(-42.507 366.741 712.27)" cx="366.7" cy="712.3" rx=".6" ry="1.8"/><ellipse transform="rotate(-42.54 360.426 718.122)" cx="360.4" cy="718.1" rx=".6" ry="1.8"/><path d="M367.862 713.525l-6.265 5.745-2.433-2.654 6.265-5.744z"/><linearGradient id="E" gradientUnits="userSpaceOnUse" x1="-3648.454" y1="2628.486" x2="-3647.533" y2="2628.486" gradientTransform="matrix(-.8356 .7663 .7663 .8356 -4695.987 1311.304)"><stop offset="0" stop-color="#e6e630"/><stop offset="1" stop-color="#f5c415"/></linearGradient><path fill="url(#E)" d="M366.2 712.7c.5.5 1.2.9 1.4.6.2-.2 0-.9-.6-1.4-.5-.5-1.2-.9-1.4-.6-.2.2.1.9.6 1.4z"/><ellipse transform="rotate(-42.507 364.877 712.451)" cx="364.9" cy="712.5" rx=".6" ry="1.8"/><ellipse transform="rotate(-42.483 358.62 718.188)" cx="358.6" cy="718.2" rx=".6" ry="1.8"/><path d="M366.16 713.707l-6.266 5.744-2.433-2.654 6.266-5.744z"/><linearGradient id="F" gradientUnits="userSpaceOnUse" x1="-3647.191" y1="2627.629" x2="-3646.27" y2="2627.629" gradientTransform="matrix(-.8356 .7663 .7663 .8356 -4695.987 1311.304)"><stop offset="0" stop-color="#e6e630"/><stop offset="1" stop-color="#f5c415"/></linearGradient><path fill="url(#F)" d="M364.5 712.9c.5.5 1.2.9 1.4.6.2-.2 0-.9-.5-1.4-.5-.5-1.2-.9-1.4-.6-.3.2-.1.9.5 1.4z"/><ellipse transform="rotate(-42.532 363.182 712.48)" cx="363.2" cy="712.5" rx=".6" ry="1.8"/><ellipse transform="rotate(-42.507 356.9 718.327)" cx="356.9" cy="718.3" rx=".6" ry="1.8"/><path d="M364.336 713.878l-6.265 5.744-2.433-2.654 6.265-5.744z"/><linearGradient id="G" gradientUnits="userSpaceOnUse" x1="-3645.963" y1="2626.573" x2="-3645.043" y2="2626.573" gradientTransform="matrix(-.8356 .7663 .7663 .8356 -4695.987 1311.304)"><stop offset="0" stop-color="#e6e630"/><stop offset="1" stop-color="#f5c415"/></linearGradient><path fill="url(#G)" d="M362.6 713c.5.5 1.2.9 1.4.6.2-.2 0-.9-.6-1.4-.5-.5-1.2-.9-1.4-.6-.1.2.1.9.6 1.4z"/><linearGradient id="H" gradientUnits="userSpaceOnUse" x1="-4221.377" y1="772.8" x2="-4173.787" y2="772.8" gradientTransform="matrix(-1.1336 0 0 1.1336 -4369.797 -195.72)"><stop offset="0" stop-color="#fff" stop-opacity="0"/><stop offset="1" stop-color="#f5ffff"/></linearGradient><path opacity=".1" fill="url(#H)" d="M362.1 711.6l49.1-64.8 4.7 8.5-51.9 58.5c-.2.2-.9-.1-1.4-.6-.5-.7-.7-1.4-.5-1.6z"/><linearGradient id="I" gradientUnits="userSpaceOnUse" x1="-4222.993" y1="772.705" x2="-4175.402" y2="772.705" gradientTransform="matrix(-1.1336 0 0 1.1336 -4369.797 -195.72)"><stop offset="0" stop-color="#fff" stop-opacity="0"/><stop offset="1" stop-color="#f5ffff"/></linearGradient><path opacity=".3" fill="url(#I)" d="M363.9 711.5l49.1-64.8 4.7 8.5-51.9 58.4c-.2.2-.9-.1-1.4-.6-.5-.7-.7-1.3-.5-1.5z"/><linearGradient id="J" gradientUnits="userSpaceOnUse" x1="-4224.532" y1="772.609" x2="-4176.941" y2="772.609" gradientTransform="matrix(-1.1336 0 0 1.1336 -4369.797 -195.72)"><stop offset="0" stop-color="#fff" stop-opacity="0"/><stop offset="1" stop-color="#f5ffff"/></linearGradient><path opacity=".2" fill="url(#J)" d="M365.6 711.4l49.1-64.8 4.7 8.5-51.9 58.4c-.2.2-.9-.1-1.4-.6-.5-.7-.7-1.4-.5-1.5z"/><ellipse transform="rotate(-42.495 344.203 712.11)" cx="344.2" cy="712.1" rx=".6" ry="1.8"/><ellipse transform="rotate(-42.524 337.85 717.909)" cx="337.8" cy="717.9" rx=".6" ry="1.8"/><path d="M345.281 713.392l-6.265 5.744-2.433-2.653 6.265-5.745z"/><linearGradient id="K" gradientUnits="userSpaceOnUse" x1="-3633.875" y1="2614.896" x2="-3632.955" y2="2614.896" gradientTransform="matrix(-.8356 .7663 .7663 .8356 -4695.987 1311.304)"><stop offset="0" stop-color="#e6e630"/><stop offset="1" stop-color="#f5c415"/></linearGradient><path fill="url(#K)" d="M343.6 712.5c.5.5 1.2.9 1.4.6.2-.2 0-.9-.6-1.4-.5-.5-1.2-.9-1.4-.6-.2.2.1.9.6 1.4z"/><ellipse transform="rotate(-42.507 342.316 712.265)" cx="342.3" cy="712.3" rx=".6" ry="1.8"/><ellipse transform="rotate(-42.495 336.114 718.005)" cx="336.1" cy="718" rx=".6" ry="1.8"/><path d="M343.414 713.608l-6.266 5.744-2.433-2.653 6.266-5.744z"/><linearGradient id="L" gradientUnits="userSpaceOnUse" x1="-3632.612" y1="2614.007" x2="-3631.692" y2="2614.007" gradientTransform="matrix(-.8356 .7663 .7663 .8356 -4695.987 1311.304)"><stop offset="0" stop-color="#e6e630"/><stop offset="1" stop-color="#f5c415"/></linearGradient><path fill="url(#L)" d="M341.9 712.7c.5.5 1.2.9 1.4.6.2-.2 0-.9-.6-1.4-.5-.5-1.2-.9-1.4-.6-.3.2-.1.9.6 1.4z"/><ellipse transform="rotate(-42.495 340.612 712.411)" cx="340.6" cy="712.4" rx=".6" ry="1.8"/><ellipse transform="rotate(-42.507 334.233 718.074)" cx="334.2" cy="718.1" rx=".6" ry="1.8"/><path d="M341.733 713.638l-6.265 5.743-2.433-2.654 6.266-5.743z"/><linearGradient id="M" gradientUnits="userSpaceOnUse" x1="-3631.385" y1="2612.983" x2="-3630.465" y2="2612.983" gradientTransform="matrix(-.8356 .7663 .7663 .8356 -4695.987 1311.304)"><stop offset="0" stop-color="#e6e630"/><stop offset="1" stop-color="#f5c415"/></linearGradient><path fill="url(#M)" d="M340.1 712.8c.5.5 1.2.9 1.4.6.2-.2 0-.9-.6-1.4-.5-.5-1.2-.9-1.4-.6-.3.2 0 .9.6 1.4z"/><linearGradient id="N" gradientUnits="userSpaceOnUse" x1="-4201.449" y1="772.609" x2="-4153.871" y2="772.609" gradientTransform="matrix(-1.1336 0 0 1.1336 -4369.797 -195.72)"><stop offset="0" stop-color="#fff" stop-opacity="0"/><stop offset="1" stop-color="#f5ffff"/></linearGradient><path opacity=".1" fill="url(#N)" d="M339.4 711.4l49.1-64.8 4.7 8.5-51.9 58.4c-.2.2-.9-.1-1.4-.6-.4-.6-.7-1.3-.5-1.5z"/><linearGradient id="O" gradientUnits="userSpaceOnUse" x1="-4203.026" y1="772.514" x2="-4155.448" y2="772.514" gradientTransform="matrix(-1.1336 0 0 1.1336 -4369.797 -195.72)"><stop offset="0" stop-color="#fff" stop-opacity="0"/><stop offset="1" stop-color="#f5ffff"/></linearGradient><path opacity=".3" fill="url(#O)" d="M341.2 711.3l49.1-64.8 4.7 8.5-51.9 58.4c-.2.2-.9-.1-1.4-.6-.3-.7-.7-1.3-.5-1.5z"/><linearGradient id="P" gradientUnits="userSpaceOnUse" x1="-4204.604" y1="772.419" x2="-4157.024" y2="772.419" gradientTransform="matrix(-1.1336 0 0 1.1336 -4369.797 -195.72)"><stop offset="0" stop-color="#fff" stop-opacity="0"/><stop offset="1" stop-color="#f5ffff"/></linearGradient><path opacity=".2" fill="url(#P)" d="M343.1 711.2l49.1-64.8 4.7 8.5-51.9 58.5c-.2.2-.9-.1-1.4-.6-.5-.8-.8-1.5-.5-1.6z"/></svg>