<svg xmlns="http://www.w3.org/2000/svg" viewBox="0 0 520 300"><path d="M42.495 79.25h3.556V58.917h-3.556v-5.793h23.81v9.428h-6.712v-2.636H54.04v6.95h9.348v6.272H54.04v6.272h4.075v5.792h-15.62V79.25zm23.45 0h2.636l8.669-26.126h9.108l8.668 26.126h2.637v5.793H84.36V79.25h2.717l-1.239-4.234H77.69l-1.238 4.234h2.716v5.793H65.865l.08-5.793zM84.24 69.024l-1.638-5.873c-.32-.998-.32-1.837-.48-2.397l-.16-.918h-.16c0 .32-.08.679-.08.918-.159.56-.239 1.399-.479 2.397l-1.717 5.873h4.714zm16.18 10.226h3.555V58.917h-3.556v-5.793H114.8c2.477 0 4.554.08 6.352.68 3.875 1.238 6.352 4.314 6.352 9.028 0 4.234-1.998 7.03-5.193 8.748v.08c.24.16.479.24.759.4.4.32.918.759 1.238 1.478l2.477 4.713c.4.76.998 1 2.077 1h1.158v5.792h-5.273c-2.556 0-3.635-.68-4.554-2.397l-3.875-7.43c-.479-1-1.158-1.399-2.716-1.399h-1.558v5.393h3.316v5.793H100.5V79.25h-.08zm15.14-11.665c2.476 0 4.034-1.238 4.034-4.114 0-1.478-.32-2.876-1.718-3.555-.759-.32-1.717-.48-3.076-.48h-2.876v8.19l3.635-.04zm33.955-14.94c9.747 0 16.778 7.11 16.778 16.299 0 9.347-7.03 16.698-16.778 16.698-9.747 0-16.778-7.35-16.778-16.698 0-9.188 7.03-16.299 16.778-16.299zm0 26.046c4.714 0 8.509-4.235 8.509-9.747 0-5.393-3.795-9.348-8.51-9.348-4.713 0-8.508 4.035-8.508 9.348 0 5.592 3.875 9.747 8.509 9.747zm20.573.559h3.555V59.396h-3.555v-6.272h15.14v6.272h-3.555v19.415h6.87v-4.714h6.712v10.906h-25.127V79.25h-.04zm39.428 0h3.555V58.917h-3.555v-5.793h14.062c2.476 0 4.554.08 6.511.68 6.352 1.837 10.746 7.19 10.746 15.3 0 7.35-3.715 12.743-9.587 14.86-2.317.839-4.714 1.079-7.59 1.079h-14.142V79.25zm13.902-.4c1.997 0 3.475-.239 4.873-.918 2.717-1.398 4.315-4.554 4.315-8.749 0-4.793-1.918-7.79-4.874-9.108-1.398-.559-2.636-.679-4.314-.679H221.1v19.415l2.317.04zm21.252.4h3.555V58.917h-3.555v-5.793h24.648v9.428h-6.712v-3.156h-6.351v6.432h9.347V72.1h-9.347v6.71h6.87v-3.155h6.712v9.427H244.67V79.25zm40.587 0h3.555V58.917h-3.555v-5.793h11.664l9.987 16.938c.4.68.76 1.398.92 2.077l.399 1.159h.16l-.16-1.238c-.16-.76-.16-1.558-.16-2.317V58.917h-3.715v-5.793h15.3v5.793h-3.556v26.126h-8.03L298 68.185c-.32-.68-.759-1.398-.919-2.078l-.4-1.158h-.16l.16 1.238c.16.76.16 1.558.16 2.317V79.25h3.716v5.793h-15.3V79.25zm54.488-26.605c9.747 0 16.778 7.11 16.778 16.299 0 9.347-7.03 16.698-16.778 16.698-9.747 0-16.778-7.35-16.778-16.698-.04-9.188 6.991-16.299 16.778-16.299zm0 26.046c4.714 0 8.509-4.235 8.509-9.747 0-5.393-3.795-9.348-8.509-9.348s-8.509 4.035-8.509 9.348c-.04 5.592 3.795 9.747 8.51 9.747zm26.285.559h3.556V59.396h-3.795v4.554h-6.711V53.204h28.922V63.95h-6.711v-4.554h-3.795V79.25h3.555v5.793h-15.14l.12-5.793zm25.208 0h3.555V58.917h-3.555v-5.793h15.14v5.793h-3.556V79.25h3.556v5.793h-15.14V79.25zm8.748-34.794h7.95l-6.791 6.711h-6.352l5.193-6.711zm26.765 8.189c3.875 0 12.903 1.238 12.903 6.352v5.033h-7.11v-2.477c0-1.837-3.236-2.317-5.354-2.317-5.193 0-8.748 3.396-8.748 9.268 0 6.632 3.955 10.347 9.268 10.347 1.398 0 5.273-.32 5.273-2.317v-2.477h7.11v5.113c0 4.874-8.588 6.272-13.062 6.272-9.748 0-16.938-7.19-16.938-16.538s7.35-16.259 16.658-16.259zm17.377 26.605h3.555V58.917h-3.555v-5.793h15.14v5.793h-3.555V79.25h3.555v5.793h-15.14V79.25zm17.777 0h2.636l8.669-26.126h9.108l8.669 26.126h2.636v5.793h-13.302V79.25h2.716l-1.238-4.234h-8.19l-1.238 4.234h2.717v5.793h-13.303l.12-5.793zm18.256-10.226l-1.638-5.873c-.32-.998-.32-1.837-.48-2.397l-.16-.918h-.159c0 .32-.08.679-.08.918-.16.56-.24 1.399-.48 2.397l-1.717 5.873h4.714zm22.889 4.673v2.397c0 1.638 2.078 2.557 4.635 2.557 2.556 0 4.314-.839 4.314-2.557 0-2.476-3.555-3.235-6.87-4.554-4.315-1.717-8.43-3.715-8.43-9.587 0-7.11 5.793-9.348 11.505-9.348 5.473 0 10.826 2.077 10.826 6.112v4.714h-7.11v-1.997c0-1.239-1.719-1.918-3.716-1.918-1.838 0-3.475.48-3.475 2.157 0 2.237 2.636 3.076 5.552 4.115 4.874 1.638 9.748 3.715 9.748 9.747 0 7.27-6.272 9.987-12.304 9.987-5.953 0-11.745-2.637-11.745-7.79v-4.114h7.07v.08zM43.654 107.613h1.638v-9.987h-1.638v-1.917h6.112c.998 0 1.837.08 2.636.32 1.558.478 2.557 1.717 2.557 3.714s-.999 3.316-2.637 3.875l.24.16c.16.16.32.32.4.56l1.558 2.875c.24.32.479.4.918.4h.4v1.917H54.2c-1.158 0-1.478-.24-1.917-1.078l-1.998-3.556c-.32-.479-.56-.759-1.318-.759h-1.239v3.396h1.558v1.918h-5.792l.16-1.838zm6.511-5.473c1.319 0 2.237-.839 2.237-2.317 0-.919-.32-1.558-1.078-1.917-.32-.16-.919-.24-1.558-.24h-1.918v4.474h2.317zm12.065-2.876c2.876 0 4.474 2.077 4.474 4.714v.799h-6.871c.16 1.837 1.478 2.796 2.956 2.796.839 0 1.478-.24 2.077-.48.32-.16.56-.319.839-.479l.999 1.718a7.1 7.1 0 0 1-1.079.68c-.759.319-1.718.758-2.956.758-3.316 0-5.393-2.397-5.393-5.193-.16-3.156 1.997-5.313 4.953-5.313zm1.837 4.114c-.08-1.398-.839-2.157-1.917-2.157-1.239 0-2.158.84-2.397 2.157h4.314zm4.195 4.235h1.478v-6.272h-1.558v-1.837h1.558v-.4c0-3.236 2.556-3.635 3.875-3.635h1.079v1.997h-.721c-.56 0-1.638.08-1.638 1.558v.48h2.237v1.837h-2.317v6.272h1.638v1.838h-5.632v-1.838zm12.503-8.349c2.876 0 4.474 2.077 4.474 4.714v.799h-6.87c.16 1.837 1.477 2.796 2.955 2.796.84 0 1.478-.24 2.078-.48.32-.16.559-.319.839-.479l.998 1.718a7.1 7.1 0 0 1-1.078.68c-.76.319-1.718.758-2.956.758-3.316 0-5.393-2.397-5.393-5.193-.12-3.156 1.957-5.313 4.953-5.313zm1.878 4.114c-.08-1.398-.84-2.157-1.918-2.157-1.238 0-2.157.84-2.397 2.157h4.315zm4.154 4.235h1.478v-5.792c0-.32-.16-.4-.4-.4h-1.078v-1.838h2.557c.919 0 1.318.4 1.318 1.239v1.119c.48-1.399 1.638-2.557 3.156-2.557h.48v2.476h-.56c-1.997 0-2.876 1.718-2.876 3.636v2.157h1.398v1.837h-5.393l-.08-1.877zm13.543-8.349c2.876 0 4.474 2.077 4.474 4.714v.799h-6.951c.16 1.837 1.478 2.796 2.956 2.796.839 0 1.478-.24 2.077-.48.32-.16.56-.319.839-.479l.999 1.718a7.1 7.1 0 0 1-1.079.68c-.759.319-1.718.758-2.956.758-3.316 0-5.393-2.397-5.393-5.193 0-3.156 2.077-5.313 5.033-5.313zm-1.24-3.635h2.557l1.837 2.636h-2.077l-.999-1.558-.998 1.558h-2.078l1.758-2.636zm3.156 7.75c-.08-1.399-.839-2.158-1.918-2.158-1.238 0-2.157.84-2.396 2.157h4.314zm4.195 4.234h1.478v-5.792c0-.32-.16-.4-.399-.4h-1.079v-1.838h2.637c.919 0 1.318.4 1.318 1.079v.879c.08-.32 1.159-2.237 3.635-2.237 2.158 0 3.316 1.158 3.316 3.795v4.554h1.478v1.837h-3.875v-5.872c0-1.238-.32-2.077-1.558-2.077-1.837 0-2.876 1.718-2.876 3.475v2.637h1.398v1.837h-5.393l-.08-1.877zm18.696-8.349c1.638 0 4.035.679 4.035 2.397v1.398h-2.158v-.68c0-.678-.998-.998-1.837-.998-1.838 0-2.876 1.238-2.876 3.076 0 2.077 1.398 3.156 3.155 3.156 1.399 0 2.557-.76 3.156-1.238l.92 1.717c-.68.68-2.238 1.558-4.116 1.558-2.876 0-5.472-1.997-5.472-5.193-.2-2.876 2.117-5.193 5.193-5.193zm5.793 8.349h1.477v-6.272h-1.558v-1.837h4.035v8.109h1.398v1.838H130.9v-1.838zm1.477-11.984h2.477v2.237h-2.477v-2.237zm10.666 7.67h.68v-.32c0-1.238-.84-1.718-1.838-1.718-.76 0-1.398.24-1.998.48-.32.16-.559.32-.838.479l-.92-1.718c.32-.24.68-.4 1.08-.679.678-.32 1.637-.56 2.876-.56 2.636 0 4.114 1.399 4.114 3.956v3.954c0 .32.16.4.4.4h.918v1.838h-2.317c-.918 0-1.238-.48-1.238-1.079v-.64c-.16.32-.4.68-.759 1-.48.479-1.238.998-2.477.998-1.717 0-3.315-.999-3.315-3.076 0-2.956 3.955-3.315 5.632-3.315zm-1.677 4.554c1.318 0 2.316-1.478 2.316-2.717v-.32h-.399c-.999 0-3.316.16-3.316 1.638-.08.84.44 1.399 1.399 1.399zm17.137-8.589c2.876 0 4.474 2.077 4.474 4.714v.799h-6.87c.159 1.837 1.477 2.796 2.955 2.796.84 0 1.478-.24 2.078-.48.32-.16.559-.319.838-.479l1 1.718a7.1 7.1 0 0 1-1.08.68c-.758.319-1.717.758-2.956.758-3.315 0-5.392-2.397-5.392-5.193-.08-3.156 1.957-5.313 4.953-5.313zm1.878 4.114c-.08-1.398-.84-2.157-1.918-2.157-1.238 0-2.157.84-2.397 2.157h4.315zm4.234 4.235h1.478v-5.872c0-.24-.16-.4-.4-.4h-1.078v-1.837h2.557c.918 0 1.318.399 1.318 1.078v.879c.48-.999 1.838-2.237 3.395-2.237 1.399 0 2.397.679 2.797 2.157.56-1.158 1.917-2.157 3.475-2.157 2.077 0 3.236 1.158 3.236 3.795v4.554h1.478v1.838h-4.035v-5.953c0-1.158-.16-1.997-1.398-1.997-1.718 0-2.556 1.718-2.556 3.555v2.557h1.478v1.838h-3.875v-5.953c0-1.078-.16-1.997-1.319-1.997-1.717 0-2.556 1.838-2.556 3.635v2.397h1.398v1.838h-5.393v-1.718zm23.809-3.076h2.476v.759c0 1.079.4 2.157 1.718 2.157.999 0 1.718-.56 1.718-2.157v-7.79h-1.917V95.59h5.952v1.917h-1.478v7.87c0 2.956-2.158 4.314-4.315 4.314-2.077 0-4.234-1.238-4.234-4.234l.08-.919zm16.858-5.273c3.076 0 5.472 2.157 5.472 5.193 0 3.076-2.476 5.193-5.472 5.193-3.076 0-5.473-2.157-5.473-5.193-.08-2.956 2.397-5.193 5.473-5.193zm0 8.349c1.637 0 2.956-1.238 2.956-3.156 0-1.838-1.319-3.156-2.956-3.156s-2.956 1.239-2.956 3.156c-.04 1.918 1.318 3.156 2.956 3.156zm7.03 0h1.478v-5.792c0-.32-.16-.4-.399-.4h-1.079v-1.838h2.557c.919 0 1.318.4 1.318 1.239v1.119c.48-1.399 1.638-2.557 3.156-2.557h.48v2.476h-.56c-1.997 0-2.876 1.718-2.876 3.636v2.157h1.398v1.837h-5.393l-.08-1.877zm8.669 0h1.478v-5.792c0-.32-.16-.4-.4-.4h-1.078v-1.838h2.637c.918 0 1.318.4 1.318 1.079v.879c.08-.32 1.158-2.237 3.635-2.237 2.157 0 3.316 1.158 3.316 3.795v4.554h1.478v1.837h-3.875v-5.872c0-1.238-.32-2.077-1.558-2.077-1.838 0-2.876 1.718-2.876 3.475v2.637h1.398v1.837h-5.473v-1.877zm18.935-4.314h.68v-.32c0-1.238-.84-1.718-1.838-1.718-.76 0-1.398.24-1.998.48-.32.16-.559.32-.839.479l-.918-1.718c.32-.24.679-.4 1.078-.679.68-.32 1.638-.56 2.876-.56 2.637 0 4.115 1.399 4.115 3.956v3.954c0 .32.16.4.4.4h.918v1.838h-2.317c-.918 0-1.238-.48-1.238-1.079v-.64c-.16.32-.4.68-.76 1-.478.479-1.237.998-2.476.998-1.718 0-3.315-.999-3.315-3.076 0-2.956 3.994-3.315 5.632-3.315zm-1.638 4.554c1.319 0 2.317-1.478 2.317-2.717v-.32h-.4c-.998 0-3.315.16-3.315 1.638-.12.84.4 1.399 1.398 1.399zm7.91-10.427h-1.558V95.59h3.955v10.586c0 .919.16 1.398.998 1.398h.48v1.997h-.919c-1.558 0-3.076-.479-3.076-3.235l.12-8.909zm5.472 10.187h1.479v-6.272h-1.558v-1.837h4.035v8.109h1.398v1.838h-5.393v-1.838h.04zm1.399-11.984h2.477v2.237h-2.477v-2.237zm5.193 10.586h2.157v.559c0 .68.92 1.079 1.998 1.079.998 0 1.717-.32 1.717-1 0-.838-.918-1.078-2.237-1.557-1.478-.48-3.156-1.159-3.156-3.076 0-2.157 2.158-2.876 3.955-2.876 1.478 0 3.635.559 3.635 2.077v1.238h-2.396v-.559c0-.48-.56-.839-1.478-.839-.76 0-1.478.24-1.478.919 0 .839.998 1.159 2.077 1.478 1.478.48 3.315 1.079 3.315 3.076 0 2.077-1.917 3.076-4.234 3.076-1.838 0-4.035-.759-4.035-2.397l.16-1.198zm9.868 1.398h1.477v-5.872c0-.24-.16-.4-.4-.4h-1.078v-1.837h2.557c.919 0 1.318.399 1.318 1.078v.879c.48-.999 1.838-2.237 3.396-2.237 1.398 0 2.396.679 2.796 2.157.56-1.158 1.917-2.157 3.475-2.157 2.078 0 3.236 1.158 3.236 3.795v4.554h1.478v1.838h-3.955v-5.953c0-1.158-.16-1.997-1.398-1.997-1.718 0-2.556 1.718-2.556 3.555v2.557h1.478v1.838h-3.875v-5.953c0-1.078-.16-1.997-1.319-1.997-1.717 0-2.556 1.838-2.556 3.635v2.397h1.398v1.838h-5.473v-1.718zm24.687-8.349c3.076 0 5.473 2.157 5.473 5.193 0 3.076-2.477 5.193-5.473 5.193-3.076 0-5.473-2.157-5.473-5.193.04-2.956 2.437-5.193 5.473-5.193zm0 8.349c1.638 0 2.956-1.238 2.956-3.156 0-1.838-1.318-3.156-2.956-3.156s-2.956 1.239-2.956 3.156c0 1.918 1.398 3.156 2.956 3.156zM23.72 86.68H3.227c-.24 3.716-.4 7.43-.68 11.146H24.28c-.16-3.675-.32-7.43-.559-11.146zm-4.474 7.111H16.45v-3.156h2.796v3.156zm3.236-22.97H4.545c-.24 3.715-.4 7.43-.679 11.146h19.255c-.24-3.795-.4-7.43-.64-11.146zm-3.236 7.11H16.45v-3.155h2.796v3.156zM5.104 65.468h16.778c-.16-3.715-.4-7.27-.559-10.905H5.783c-.24 3.595-.519 7.27-.679 10.905zm11.346-7.03h2.796v3.155H16.45v-3.156zm5.872-10.347c0-.08-.08-.24-.08-.24-.4 0-.24-.32-.24-.559v-2.876c-.919.16-1.837.08-2.636.08v-4.874c.32.08.679.08.998.16v-.08c-.4-.24-.918-.56-1.318-.839-1.398-.919-2.796-1.837-4.314-2.636-.4-.24-.56-.4-.48-.92 0-.399 0-.758.08-1.158 0 0 .16-.08.24-.08-.32-.24-.68-.479-.999-.759-.32.24-.679.48-.918.68.08.16.16.24.24.399 0 .32-.08.759 0 1.079 0 .32-.08.4-.32.559-.24.16-.48.32-.76.48-1.557.918-3.075 1.917-4.633 2.796-.08.08-.24.16-.48.32.4-.08.76-.08 1.079-.08v4.633c0 .08-.24.24-.32.24H5.823c-.16 0-.399-.08-.679-.16v2.876c0 .24.16.68-.32.68 0 0-.08.24-.08.319v3.635h17.698c-.12-1.198-.12-2.437-.12-3.675zM5.184 45.015c0-.08.16-.32.24-.32h2.237v2.717H5.424c-.08 0-.24-.16-.24-.32v-2.077zm5.553-1.238c0 .08-.16.24-.24.24-.839.08-1.637.16-2.476.24V41.3c0-.08.08-.16.16-.16.838-.08 1.637-.16 2.476-.24.08 1 .08 1.918.08 2.877zm4.794-.24c0 .16-.16.32-.24.32h-3.795V41.14c0-.08.16-.32.32-.32h3.395c.24 0 .32.16.32.4v2.317zm3.395.759c-.919-.08-1.717-.16-2.476-.24-.08 0-.16-.16-.16-.24V40.94c.919.08 1.638.16 2.476.24.08 0 .16.16.24.24-.08.879-.08 1.797-.08 2.876zm2.797 3.116h-2.317c-.08 0-.16-.16-.16-.24v-2.157c0-.08.16-.32.24-.32h2.237v2.717zM-.009 103.378v5.274h27.045v-5.274H-.01z" fill="#ABADAF"/><g fill="#ABADAF"><path d="M84.63 238.417c9.91 4.796 20.187 8.38 30.991 10.383 22.03 4.163 43.745 3.267 64.774-5.218 7.431-2.951 14.072-6.957 19.764-12.65 12.755-12.859 13.65-29.092 2.425-43.27-1.529-1.95-3.373-3.794-4.691-6.219 2.266 1.74 4.69 3.479 6.852 5.323 7.115 5.903 13.176 12.65 17.129 21.135 6.851 14.705 3.478 29.093-9.276 39.16-10.594 8.38-23.138 12.122-36.314 13.545-31.623 3.373-61.085-3.479-88.227-19.975-1.265-.58-2.372-1.476-3.426-2.214zm96.081-68.305c-11.226-5.587-22.346-9.065-34.047-10.7-19.87-2.845-39.265-1.739-58.133 5.587-7.22 2.846-13.861 6.43-19.5 11.648-14.81 13.756-15.707 31.834-2.162 46.907.738.896 1.529 1.74 1.95 2.952-12.754-9.276-23.98-19.765-26.3-36.314-1.739-12.754 4.27-22.347 14.284-29.673 10.382-7.536 22.346-10.91 34.89-12.227 30.516-3.162 59.135 3.373 85.592 18.657 1.213.791 2.425 1.213 3.426 3.163z"/><path d="M163.899 209.377c-3.69-1.95-7.432-3.795-11.016-5.903-4.269-2.53-8.749-5.218-7.853-11.016s6.009-7.536 10.91-8.748c7.642-1.845 15.39-.738 23.137-.896 6.852-.106 6.641 0 6.852 6.64.105 3.479-.896 4.586-4.374 4.375-4.797-.316-9.593 0-14.494 0-.211 0-.422.21-.896.316.421 1.634 2.055 1.634 3.162 2.056 5.587 2.16 11.12 4.48 15.917 7.958 5.587 4.058 5.323 9.381-.422 13.176-4.374 2.846-9.487 3.69-14.494 3.795-7.642.21-15.284 0-22.768.105-2.53 0-3.268-.738-3.268-3.267 0-7.959-.105-7.959 7.853-7.959h11.543c.21.053.21-.263.21-.632zm-89.757-2.372v-8.38c0-9.381 6.009-15.6 15.285-15.706 5.797-.105 11.648 0 17.445-.105 2.161 0 3.162.421 3.162 2.951.106 8.485.211 8.485-8.169 8.485-2.055 0-4.058 0-6.114.211-.896.106-1.633.738-1.633 1.74 0 1.423 1.106 1.106 1.95 1.106 3.689 0 7.326.106 11.015 0 1.95-.105 2.951.317 2.951 2.741.211 8.59.317 8.59-8.38 8.59-8.063 0-8.274 0-7.958 8.17.105 3.795-.738 5.218-4.796 4.796-3.795-.421-7.642-.21-11.437 0-2.74.106-3.479-.896-3.373-3.478.263-3.69.158-7.432.052-11.121.106 0 0 0 0 0zm62.139-4.585c0 5.323-.105 10.699 0 16.022 0 2.16-.316 3.268-2.846 3.162-4.48-.21-8.854-.105-13.281 0-1.95 0-2.636-.632-2.636-2.635 0-11.12 0-22.347-.105-33.468 0-1.739.527-2.53 2.424-2.53 4.691.106 9.382.106 14.073 0 2.055-.105 2.53.897 2.53 2.741-.264 5.482-.159 11.121-.159 16.708zm44.747-32.308c1.423-.211 1.844.738 3.267 1.423-1.844-.211-2.53-.633-3.267-1.423zM70.084 227.296v.211l-.21-.105zm12.807 9.804l.106-.106-.106.105z"/></g><g fill="#ABADAF"><path d="M443.827 184.167c-.763-.436-1.562-.436-2.397-.436h-94.66c-.509 0-1.053-.073-1.67 0-2.252.29-3.232 2.614-1.961 4.502a119.434 119.434 0 0 1 2.687 4.212c1.56 2.542 3.086 5.048 4.647 7.59 1.053 1.67 2.324 3.23 3.232 4.974 1.27 2.469 3.014 4.647 4.357 6.971 1.126 1.888 2.47 3.595 3.522 5.483 1.561 3.086 3.667 5.846 5.41 8.86 1.67 2.94 3.595 5.773 5.41 8.642 2.615 4.139 5.266 8.35 7.807 12.563 1.816 2.868 3.74 5.7 5.483 8.642 1.27 2.106 2.796 4.066 3.849 6.318a12.155 12.155 0 0 0 1.96 2.868c.509.617 1.199 1.126 1.961 1.344.364.145 1.053-.364 1.49-.69.98-.436 1.343-1.344 1.887-2.179.29-.617.763-1.126 1.053-1.67 1.489-2.324 3.014-4.575 4.503-6.972 1.815-2.94 3.522-6.027 5.41-8.86 2.614-4.139 5.192-8.205 7.734-12.309a1130.17 1130.17 0 0 1 7.734-12.163c2.47-3.85 4.793-7.734 7.226-11.583 2.033-3.305 4.14-6.681 6.318-9.913 1.561-2.396 3.086-4.902 4.647-7.371 1.126-1.815 2.252-3.522 3.232-5.41 1.017-1.598.654-2.506-.871-3.413zm-31.99 27.958c-.072.291-.29.69-.435.98-1.961 3.087-3.922 6.101-5.846 9.151a365.85 365.85 0 0 0-4.358 6.972 570.526 570.526 0 0 1-5.555 8.569c-1.67 2.541-1.96 2.796-3.595 0-1.198-1.961-2.396-3.922-3.594-5.919-1.416-2.324-3.087-4.575-4.43-6.971-1.053-1.961-2.397-3.74-3.595-5.701-1.343-2.106-2.796-4.285-4.067-6.463-.218-.363-.072-.908-.145-1.344-.073-.69.145-.907.908-.907h32.461c.436 0 .908-.073 1.344 0 .617.217 1.125.98.907 1.633zm-65.067-50.18c1.815 2.251 3.921 4.284 5.846 6.39.69.763 1.416.98 2.396.98 1.343-.072 1.126 0 1.126-1.125v-20.878c-.073-.835-.436-1.198-1.271-1.198s-1.743.072-2.542 0c-.762-.073-.835.29-.835.98v12.781c0 .218-.073.436-.145.617-.146-.145-.363-.217-.436-.363-.508-1.198-1.67-1.96-2.47-2.94-.834-.981-1.67-1.961-2.468-2.942-1.053-1.198-2.179-2.251-3.16-3.522-1.815-2.251-3.993-4.212-5.845-6.463-1.271-1.489-2.614-2.106-4.575-1.888-1.271.145-1.271.072-1.271 1.416v21.786c0 1.198.073 2.396.145 3.595 1.198 0 2.47.072 3.668.072h.217c.218-.145.509-.29.509-.508.072-.508 0-1.053 0-1.67v-16.667c0-.218.145-.363.145-.617.145.145.363.218.508.363.618.617 1.344 1.126 1.816 1.816 1.416 2.323 3.849 3.848 5.337 6.172.908 1.489 2.324 2.542 3.305 3.813zm41.756 7.443h15.033c.29 0 3.376-.762 3.522-.907.907-.835 1.888-1.562 2.687-2.47.363-.362.435-1.052.617-1.56.145-.51.436-1.126.436-1.671s-.29-1.126-.436-1.67c-.218-1.489-1.27-2.542-2.106-3.74-.908 0-.763-.363-.436-.98.69-1.199 1.198-2.397 1.198-3.922-.072-2.941-2.25-5.12-5.337-5.265-5.12-.218-10.203-.073-15.323-.073-.617 0-.835.146-.763.763v20.66c.11.509.255.835.908.835zm17.683-6.317c-.145 1.125-.98 1.742-2.033 2.105-.835.364-1.67.436-2.542.436h-8.351c-.98 0-1.416-.363-1.416-1.27 0-1.67.072-3.377.072-5.048 1.562-.072 3.232-.072 4.793-.145h1.126c1.815 0 3.522-.073 5.338 0 .617 0 1.27.218 1.888.436 1.488.762 1.27 2.215 1.125 3.486zm-14.342-9.768c.072-.835.072-1.67.145-2.469.763 0 1.489-.073 2.251-.073h3.014c1.416 0 2.941.073 4.357 0 .908-.072 1.562.29 2.251.763 1.67 1.198 1.126 2.614-.29 3.377-.69.363-1.561.435-2.324.435-2.614.073-5.265 0-7.88 0-1.27 0-1.488-.29-1.56-1.56.036-.182.036-.328.036-.473zm-31.953 16.013c.617 0 1.27-.073 1.888 0 1.198.145 1.815-.436 2.251-1.416.145-.218.29-.436.436-.763l6.536-12.854c.072-.217.29-.363.363-.508.29-.29.29-.218.508.145a90.722 90.722 0 0 0 2.397 4.575c1.67 2.942 3.013 6.028 4.647 8.933.763 1.343 1.416 2.396 2.941 1.888h1.562c1.053 0 1.053-.073.617-.98-.908-1.889-1.888-3.668-2.941-5.483-1.888-3.232-3.45-6.609-5.12-9.913-.908-1.816-1.888-3.522-2.796-5.338-.217-.435-.363-.508-.762-.508-.363 0-.763.073-1.126 0-1.053-.145-1.561.29-2.033 1.27-1.126 2.47-2.106 5.048-3.595 7.3-2.542 3.92-4.067 8.423-6.608 12.308-.509.944-.218 1.344.835 1.344zm97.238-1.271c-1.125-2.251-2.323-4.43-3.522-6.681-1.815-3.377-3.522-6.681-5.337-10.058-.618-1.053-1.053-2.179-1.67-3.232-.218-.363-.509-.835-.908-.907-1.562-.436-2.47 0-3.305 1.488-1.888 3.522-3.594 7.226-5.628 10.676-1.742 3.086-2.795 6.463-5.047 9.331-.218.29 0 .763.436.763h1.67c.363 0 .763-.073 1.126 0 1.053.145 1.489-.363 2.033-1.344 1.961-3.921 3.994-7.734 6.028-11.655.435-.908.907-1.816 1.343-2.687 1.198.363.908 1.888 1.816 2.542.218.145.29.508.363.762 1.888 3.595 3.849 7.226 5.628 10.893.617 1.198 1.27 1.743 2.614 1.489.436-.073.908 0 1.344 0 1.234-.11 1.452-.436 1.016-1.38zm-42.991-10.095v10.204c0 1.198 0 1.198 1.271 1.198h9.985c.98 0 1.961 0 3.014-.072.073-1.053.073-2.106.218-3.16.145-.98-.363-.98-1.053-.98h-7.662c-1.052 0-1.052 0-1.052-1.125v-13.217c0-1.199-.073-2.397-.146-3.668-1.27 0-2.614-.072-3.921-.072-.509 0-.618.29-.618.69-.036 3.45-.036 6.826-.036 10.203zm-59.439 18.628v3.231c0 .436.145.69.617.69.617 0 .835-.145.762-.762-.072-.617 0-1.198 0-1.888 0-.29-.072-.69.073-.908.29-.436.69-.763 1.343-.69.618.073.436.508.436.835v2.796c0 .508.29.617.763.617.435 0 .762-.072.69-.617v-1.343c0-.436-.073-.908 0-1.344.072-.436.907-.908 1.416-.835.617.145.363.617.363.908v2.796c0 .617.435.508.835.435a1.57 1.57 0 0 0 .617-.435c.073-1.199.073-2.47 0-3.668 0-.762-1.561-1.488-2.178-1.27-1.053.363-1.053.363-2.542-.073a.9.9 0 0 0-.617 0c-.436.072-.836.29-1.199.363-1.307.036-1.307.036-1.38 1.162zm-10.494 3.304c.617.363 1.27.69 1.888 1.053.436-.762 1.489-.29 2.106-1.053.436-.69.436-1.198.436-1.96-.073-.618.218-1.272-.436-1.889-.617-.508-1.27-1.125-2.033-1.125-.69 0-1.271.508-1.961.907-.835.436-.763 1.271-.69 2.034.145.762-.145 1.597.69 2.033zm1.924-3.595c1.053 0 1.562.509 1.67 1.49.073.907-.69 1.742-1.488 1.742-1.126 0-1.816-.617-1.816-1.67.073-.872.763-1.562 1.634-1.562zm92.119 3.523c.617.363 1.198.762 1.816 1.125.617-.69 1.488-.29 2.178-.98s.617-1.344.617-2.106c-.072-.69.218-1.344-.435-1.888-.618-.509-1.271-1.126-2.106-1.053-.835 0-1.416.617-2.106 1.125-.69.509-.436 1.271-.436 1.888.036.618-.254 1.38.472 1.888zm2.179-3.523c.835 0 1.561.836 1.488 1.67-.072.981-.69 1.562-1.67 1.562-.908 0-1.561-.617-1.67-1.561.145-.98.799-1.67 1.852-1.67zm-67.755-.98c-.508 0-.835.073-.835.763.073.762.073 1.56 0 2.323-.073.763-.617 1.199-1.344 1.126-.762-.073-.435-.69-.435-1.053-.073-.835 0-1.743 0-2.542 0-.508-.29-.617-.763-.617-.436 0-.69.145-.69.617v2.796c.073 1.271.509 1.67 1.743 1.743h1.416c1.489 0 1.489 0 1.489-1.67v-2.796c.109-.4 0-.617-.581-.69zm35.003.29c-.073.073-.073.436 0 .436.69.073 1.27.218 1.96.29.146 0 .364-.072.436 0 .146.073.364.291.364.436 0 .146-.146.364-.29.436a8.87 8.87 0 0 1-1.89.436c-.98.145-.507 1.053-.98 1.489.436.435.291 1.488 1.417 1.343l.435-.436c.073-.508-.98-.69-.29-1.343.436-.436 1.416-.763 2.033-.436.146.073.218.436.146.617-.218.436-.618.836-.908 1.199v.435c1.888 0 1.888 0 1.888-1.743 0-.508-.073-1.053 0-1.56.145-1.126-.363-1.671-1.344-1.962-.798-.29-2.614-.072-2.977.363zm22.766-.435c-.617-.218-2.396 0-2.795.435-.073.073-.073.436 0 .436.69.073 1.27.218 1.96.29.146 0 .363-.072.436 0 .145.073.363.291.363.436 0 .146-.145.364-.29.436a8.87 8.87 0 0 1-1.888.436c-.98.145-.509 1.053-.98 1.489.435.435.29 1.488 1.415 1.343l.436-.436c.073-.508-.98-.69-.29-1.343.435-.436 1.416-.763 2.033-.436.145.073.218.436.145.617-.218.436-.617.836-.908 1.199v.435c1.888 0 1.888 0 1.888-1.743 0-.508-.072-1.053 0-1.56 0-1.2-.544-1.744-1.525-2.034zm-50.652 5.047c0 .073.363.218.508.218.073 0 .363-.145.363-.218v-2.324c0-1.343.509-1.815 1.816-1.561.218 0 .508.29.508.508.073 1.053 0 2.179.073 3.232 0 .145.363.363.617.363s.69-.145.69-.29c0-1.199.073-2.47-.073-3.668-.072-.835-1.561-1.888-2.251-1.489-.69.29-1.27.363-1.888.436-.145 0-.363.29-.363.436-.073.69 0 1.343 0 2.106v2.25zm40.522-3.922c.29 0 .617.073.835.218.363.29.763.363.908-.072.072-.29.363-.908-.363-1.126-.509-.145-1.053-.762-1.67-.436-.763.436-1.417 1.053-2.107 1.562.146 1.198-.508 2.614.836 3.594.617.436 1.56.98.29 1.816 0 0 .145.363.218.363.436 0 .98.073 1.343-.073.363-.145.98-.617.509-1.053-.509-.617-.073-.762.145-.98.073-.145.218-.218.29-.29-.145-.073-.29-.218-.508-.218-.218-.073-.436 0-.69 0-1.053-.073-1.053-.073-1.053-1.126v-1.126c-.036-1.053.037-1.125 1.017-1.053zm-83.84-1.416c-.218.073-.436.146-.69.218-1.67.69-1.888 1.198-1.96 3.087 0 1.198.616 1.742 1.56 2.396 1.054.835 1.67-.508 2.397-.073.073-.363.218-.762.145-1.053 0-.072-.617-.29-.69-.217-.363.508-.98.508-1.416.29-.69-.29-.69-.908-.69-1.561.073-1.271.218-1.49 1.562-1.562h.907c.073 0 .218-.145.29-.29s0-.363-.072-.436c-.326-.363-.835-.58-1.343-.799zm63.833 1.416c.29 0 .617.073.835.218.363.218.763.363.908-.072.073-.29.29-.908-.363-1.126-.509-.145-1.053-.762-1.67-.436-.763.436-1.743.908-2.034 1.67-.363.763-.29 1.889 0 2.688.29.69 1.198 1.053 1.888 1.488.146.145.618.145.763 0 .363-.218.69-.617.98-.98-.072-.073-.218-.218-.29-.218-.146-.073-.29 0-.436 0-1.489-.073-1.489-.073-1.489-1.67v-.69c-.072-.872.037-.944.908-.872zm-9.223 4.213c.509 0 .908-.073.835-.763-.072-.617 0-1.198 0-1.816 0-.762.073-1.488 0-2.25 0-.219-.435-.69-.617-.618-.29.072-.617.363-.762.69-.073.145 0 .435 0 .69v3.45c-.073.326 0 .616.544.616zm36.528-6.391c.218.617.618.69 1.271.363.617-.218 1.344 0 2.033-.073.436-.072.98-.907.763-1.198-.29-.363-.617-.218-.98.073-.146.145-.509.072-.763.072-.363-.072-.69-.218-.762-.29h-.436c-.617 0-1.307.617-1.126 1.053zm-36.092-1.053c-.29-.073-.98-.363-1.053.436 0 .29-.218.835.363.907.363 0 .763-.145 1.27-.29-.253-.436-.435-.98-.58-1.053z"/><path d="M409.223 179.991c-.145.218-.436.29-.617.436h1.416a1.497 1.497 0 0 1-.29-.436h-.509zm19.898 0c-.145.218-.436.29-.617.436h1.416a1.497 1.497 0 0 1-.29-.436h-.509zm-19.462-.181c0-.218 0-.436-.146-.436s-.145.218-.217.435c.145 0 .29-.072.363 0zm.072.181h.29a.543.543 0 0 0-.29-.145c-.072.036-.072.036 0 .145z"/><path d="M409.296 179.882s0-.073.072-.073c-.072 0-.145.073-.218.146h.146c-.073.036 0 .036 0-.073zm20.334-.072c0-.218 0-.436-.146-.436s-.145.218-.218.435c.145 0 .218-.072.363 0zm0 .181h.29a.55.55 0 0 0-.29-.145v.145z"/><path d="M429.194 179.882s0-.073.072-.073c-.072 0-.145.073-.218.146h.146v-.073z"/></g></svg>